<mxfile host="app.diagrams.net" agent="Mozilla/5.0 (Windows NT 10.0; Win64; x64) AppleWebKit/537.36 (KHTML, like Gecko) Chrome/131.0.0.0 Safari/537.36 OPR/116.0.0.0" version="26.0.16">
  <diagram name="Page-1" id="jEH3KJpM2LpuAeKX20hh">
    <mxGraphModel dx="2109" dy="1391" grid="0" gridSize="10" guides="1" tooltips="1" connect="1" arrows="1" fold="1" page="0" pageScale="1" pageWidth="850" pageHeight="1100" background="none" math="0" shadow="0" adaptiveColors="simple">
      <root>
        <mxCell id="0" />
        <mxCell id="1" parent="0" />
        <mxCell id="HW4Ws5UdA1n7GmpckK8y-1" value="MEDICAL" style="whiteSpace=wrap;html=1;align=center;fillColor=#d5e8d4;strokeColor=#82b366;" parent="1" vertex="1">
          <mxGeometry x="825" y="529" width="100" height="40" as="geometry" />
        </mxCell>
        <mxCell id="HW4Ws5UdA1n7GmpckK8y-2" value="TIME_TABLE" style="whiteSpace=wrap;html=1;align=center;fillColor=#d5e8d4;strokeColor=#82b366;" parent="1" vertex="1">
          <mxGeometry x="251" y="240" width="100" height="40" as="geometry" />
        </mxCell>
        <mxCell id="HW4Ws5UdA1n7GmpckK8y-5" value="COURSE" style="whiteSpace=wrap;html=1;align=center;fillColor=#d5e8d4;strokeColor=#82b366;" parent="1" vertex="1">
          <mxGeometry x="-186" y="-10" width="100" height="40" as="geometry" />
        </mxCell>
        <mxCell id="HW4Ws5UdA1n7GmpckK8y-6" value="T/O_OFFICER" style="whiteSpace=wrap;html=1;align=center;fillColor=#d5e8d4;strokeColor=#82b366;" parent="1" vertex="1">
          <mxGeometry x="880" y="-398" width="100" height="40" as="geometry" />
        </mxCell>
        <mxCell id="HW4Ws5UdA1n7GmpckK8y-9" value="ADMIN" style="whiteSpace=wrap;html=1;align=center;fillColor=#d5e8d4;strokeColor=#82b366;" parent="1" vertex="1">
          <mxGeometry x="-412" y="-369" width="100" height="40" as="geometry" />
        </mxCell>
        <mxCell id="HW4Ws5UdA1n7GmpckK8y-10" value="USER" style="whiteSpace=wrap;html=1;align=center;fillColor=#d5e8d4;strokeColor=#82b366;" parent="1" vertex="1">
          <mxGeometry x="178" y="-517" width="100" height="40" as="geometry" />
        </mxCell>
        <mxCell id="HW4Ws5UdA1n7GmpckK8y-11" value="NOTICE" style="whiteSpace=wrap;html=1;align=center;fillColor=#d5e8d4;strokeColor=#82b366;" parent="1" vertex="1">
          <mxGeometry x="-478" y="148" width="100" height="40" as="geometry" />
        </mxCell>
        <mxCell id="HW4Ws5UdA1n7GmpckK8y-12" value="" style="verticalLabelPosition=bottom;verticalAlign=top;html=1;shape=mxgraph.flowchart.on-page_reference;" parent="1" vertex="1">
          <mxGeometry x="213" y="-437" width="30" height="30" as="geometry" />
        </mxCell>
        <mxCell id="HW4Ws5UdA1n7GmpckK8y-13" value="" style="endArrow=none;html=1;rounded=0;fontSize=12;startSize=8;endSize=8;curved=1;exitX=0.408;exitY=0.01;exitDx=0;exitDy=0;exitPerimeter=0;entryX=0.5;entryY=1;entryDx=0;entryDy=0;entryPerimeter=0;" parent="1" source="HW4Ws5UdA1n7GmpckK8y-9" target="HW4Ws5UdA1n7GmpckK8y-12" edge="1">
          <mxGeometry relative="1" as="geometry">
            <mxPoint x="161" y="-199" as="sourcePoint" />
            <mxPoint x="321" y="-199" as="targetPoint" />
          </mxGeometry>
        </mxCell>
        <mxCell id="HW4Ws5UdA1n7GmpckK8y-14" value="" style="endArrow=none;html=1;rounded=0;fontSize=12;startSize=8;endSize=8;curved=1;exitX=0.5;exitY=1;exitDx=0;exitDy=0;entryX=0.5;entryY=0;entryDx=0;entryDy=0;entryPerimeter=0;" parent="1" source="HW4Ws5UdA1n7GmpckK8y-10" target="HW4Ws5UdA1n7GmpckK8y-12" edge="1">
          <mxGeometry relative="1" as="geometry">
            <mxPoint x="161" y="-199" as="sourcePoint" />
            <mxPoint x="321" y="-199" as="targetPoint" />
          </mxGeometry>
        </mxCell>
        <mxCell id="HW4Ws5UdA1n7GmpckK8y-15" value="" style="endArrow=none;html=1;rounded=0;fontSize=12;startSize=8;endSize=8;curved=1;exitX=0.5;exitY=1;exitDx=0;exitDy=0;exitPerimeter=0;entryX=0.5;entryY=0;entryDx=0;entryDy=0;" parent="1" source="HW4Ws5UdA1n7GmpckK8y-12" target="HW4Ws5UdA1n7GmpckK8y-6" edge="1">
          <mxGeometry relative="1" as="geometry">
            <mxPoint x="161" y="-199" as="sourcePoint" />
            <mxPoint x="321" y="-199" as="targetPoint" />
          </mxGeometry>
        </mxCell>
        <mxCell id="HW4Ws5UdA1n7GmpckK8y-16" value="" style="endArrow=none;html=1;rounded=0;fontSize=12;startSize=8;endSize=8;curved=1;entryX=0.5;entryY=1;entryDx=0;entryDy=0;entryPerimeter=0;exitX=0.5;exitY=0;exitDx=0;exitDy=0;" parent="1" source="HW4Ws5UdA1n7GmpckK8y-7" target="HW4Ws5UdA1n7GmpckK8y-12" edge="1">
          <mxGeometry relative="1" as="geometry">
            <mxPoint x="161" y="-199" as="sourcePoint" />
            <mxPoint x="321" y="-199" as="targetPoint" />
          </mxGeometry>
        </mxCell>
        <mxCell id="HW4Ws5UdA1n7GmpckK8y-17" value="" style="endArrow=none;html=1;rounded=0;fontSize=12;startSize=8;endSize=8;curved=1;exitX=0.5;exitY=0;exitDx=0;exitDy=0;entryX=0.5;entryY=1;entryDx=0;entryDy=0;entryPerimeter=0;" parent="1" source="HW4Ws5UdA1n7GmpckK8y-8" target="HW4Ws5UdA1n7GmpckK8y-12" edge="1">
          <mxGeometry relative="1" as="geometry">
            <mxPoint x="161" y="-199" as="sourcePoint" />
            <mxPoint x="228" y="-414" as="targetPoint" />
          </mxGeometry>
        </mxCell>
        <mxCell id="HW4Ws5UdA1n7GmpckK8y-18" value="password" style="ellipse;whiteSpace=wrap;html=1;align=center;fillColor=#dae8fc;strokeColor=#6c8ebf;" parent="1" vertex="1">
          <mxGeometry x="320" y="-553" width="95" height="36" as="geometry" />
        </mxCell>
        <mxCell id="HW4Ws5UdA1n7GmpckK8y-29" style="edgeStyle=none;curved=1;rounded=0;orthogonalLoop=1;jettySize=auto;html=1;exitX=0.5;exitY=1;exitDx=0;exitDy=0;fontSize=12;startSize=8;endSize=8;" parent="1" source="HW4Ws5UdA1n7GmpckK8y-19" edge="1">
          <mxGeometry relative="1" as="geometry">
            <mxPoint x="106" y="-631.4000244140625" as="targetPoint" />
          </mxGeometry>
        </mxCell>
        <mxCell id="HW4Ws5UdA1n7GmpckK8y-19" value="first_name" style="ellipse;whiteSpace=wrap;html=1;align=center;fillColor=#dae8fc;strokeColor=#6c8ebf;" parent="1" vertex="1">
          <mxGeometry x="63" y="-664" width="100" height="40" as="geometry" />
        </mxCell>
        <mxCell id="HW4Ws5UdA1n7GmpckK8y-20" value="email" style="ellipse;whiteSpace=wrap;html=1;align=center;fillColor=#dae8fc;strokeColor=#6c8ebf;" parent="1" vertex="1">
          <mxGeometry x="269" y="-595" width="88" height="30" as="geometry" />
        </mxCell>
        <mxCell id="HW4Ws5UdA1n7GmpckK8y-21" value="name" style="ellipse;whiteSpace=wrap;html=1;align=center;fillColor=#dae8fc;strokeColor=#6c8ebf;" parent="1" vertex="1">
          <mxGeometry x="139" y="-604" width="93" height="35" as="geometry" />
        </mxCell>
        <mxCell id="HW4Ws5UdA1n7GmpckK8y-24" value="user_id" style="ellipse;whiteSpace=wrap;html=1;align=center;fontStyle=4;fillColor=#dae8fc;strokeColor=#6c8ebf;" parent="1" vertex="1">
          <mxGeometry x="35" y="-559" width="94" height="30" as="geometry" />
        </mxCell>
        <mxCell id="HW4Ws5UdA1n7GmpckK8y-25" value="role" style="ellipse;whiteSpace=wrap;html=1;align=center;fillColor=#dae8fc;strokeColor=#6c8ebf;" parent="1" vertex="1">
          <mxGeometry x="15.5" y="-496" width="87" height="33" as="geometry" />
        </mxCell>
        <mxCell id="HW4Ws5UdA1n7GmpckK8y-26" value="phone_number" style="ellipse;whiteSpace=wrap;html=1;align=center;fillColor=#dae8fc;strokeColor=#6c8ebf;" parent="1" vertex="1">
          <mxGeometry x="324" y="-480" width="85" height="35" as="geometry" />
        </mxCell>
        <mxCell id="HW4Ws5UdA1n7GmpckK8y-28" value="last_name" style="ellipse;whiteSpace=wrap;html=1;align=center;fillColor=#dae8fc;strokeColor=#6c8ebf;" parent="1" vertex="1">
          <mxGeometry x="194" y="-664" width="100" height="40" as="geometry" />
        </mxCell>
        <mxCell id="HW4Ws5UdA1n7GmpckK8y-30" value="" style="endArrow=none;html=1;rounded=0;fontSize=12;startSize=8;endSize=8;curved=1;exitX=0.652;exitY=0.905;exitDx=0;exitDy=0;exitPerimeter=0;entryX=0.368;entryY=0.063;entryDx=0;entryDy=0;entryPerimeter=0;" parent="1" source="HW4Ws5UdA1n7GmpckK8y-19" target="HW4Ws5UdA1n7GmpckK8y-21" edge="1">
          <mxGeometry relative="1" as="geometry">
            <mxPoint x="161" y="-499" as="sourcePoint" />
            <mxPoint x="321" y="-499" as="targetPoint" />
          </mxGeometry>
        </mxCell>
        <mxCell id="HW4Ws5UdA1n7GmpckK8y-31" value="" style="endArrow=none;html=1;rounded=0;fontSize=12;startSize=8;endSize=8;curved=1;exitX=1;exitY=0.5;exitDx=0;exitDy=0;entryX=0;entryY=0;entryDx=0;entryDy=0;" parent="1" source="HW4Ws5UdA1n7GmpckK8y-24" target="HW4Ws5UdA1n7GmpckK8y-10" edge="1">
          <mxGeometry relative="1" as="geometry">
            <mxPoint x="161" y="-499" as="sourcePoint" />
            <mxPoint x="180" y="-518" as="targetPoint" />
          </mxGeometry>
        </mxCell>
        <mxCell id="HW4Ws5UdA1n7GmpckK8y-32" value="" style="endArrow=none;html=1;rounded=0;fontSize=12;startSize=8;endSize=8;curved=1;entryX=0;entryY=1;entryDx=0;entryDy=0;exitX=1;exitY=0;exitDx=0;exitDy=0;" parent="1" source="HW4Ws5UdA1n7GmpckK8y-10" target="HW4Ws5UdA1n7GmpckK8y-18" edge="1">
          <mxGeometry relative="1" as="geometry">
            <mxPoint x="275" y="-503.01" as="sourcePoint" />
            <mxPoint x="438.3699999999999" y="-529.002" as="targetPoint" />
          </mxGeometry>
        </mxCell>
        <mxCell id="HW4Ws5UdA1n7GmpckK8y-33" value="" style="endArrow=none;html=1;rounded=0;fontSize=12;startSize=8;endSize=8;curved=1;exitX=0;exitY=1;exitDx=0;exitDy=0;" parent="1" source="HW4Ws5UdA1n7GmpckK8y-20" target="HW4Ws5UdA1n7GmpckK8y-10" edge="1">
          <mxGeometry relative="1" as="geometry">
            <mxPoint x="161" y="-499" as="sourcePoint" />
            <mxPoint x="321" y="-499" as="targetPoint" />
          </mxGeometry>
        </mxCell>
        <mxCell id="HW4Ws5UdA1n7GmpckK8y-34" value="" style="endArrow=none;html=1;rounded=0;fontSize=12;startSize=8;endSize=8;curved=1;exitX=0.5;exitY=1;exitDx=0;exitDy=0;entryX=0.5;entryY=0;entryDx=0;entryDy=0;" parent="1" source="HW4Ws5UdA1n7GmpckK8y-28" target="HW4Ws5UdA1n7GmpckK8y-21" edge="1">
          <mxGeometry relative="1" as="geometry">
            <mxPoint x="161" y="-499" as="sourcePoint" />
            <mxPoint x="321" y="-499" as="targetPoint" />
          </mxGeometry>
        </mxCell>
        <mxCell id="HW4Ws5UdA1n7GmpckK8y-35" value="" style="endArrow=none;html=1;rounded=0;fontSize=12;startSize=8;endSize=8;curved=1;exitX=0.5;exitY=1;exitDx=0;exitDy=0;entryX=0.152;entryY=0.02;entryDx=0;entryDy=0;entryPerimeter=0;" parent="1" source="HW4Ws5UdA1n7GmpckK8y-21" target="HW4Ws5UdA1n7GmpckK8y-10" edge="1">
          <mxGeometry relative="1" as="geometry">
            <mxPoint x="161" y="-499" as="sourcePoint" />
            <mxPoint x="321" y="-499" as="targetPoint" />
          </mxGeometry>
        </mxCell>
        <mxCell id="HW4Ws5UdA1n7GmpckK8y-36" value="" style="endArrow=none;html=1;rounded=0;fontSize=12;startSize=8;endSize=8;curved=1;exitX=1;exitY=0.5;exitDx=0;exitDy=0;entryX=0;entryY=0.75;entryDx=0;entryDy=0;" parent="1" source="HW4Ws5UdA1n7GmpckK8y-25" target="HW4Ws5UdA1n7GmpckK8y-10" edge="1">
          <mxGeometry relative="1" as="geometry">
            <mxPoint x="161" y="-499" as="sourcePoint" />
            <mxPoint x="180" y="-486" as="targetPoint" />
          </mxGeometry>
        </mxCell>
        <mxCell id="HW4Ws5UdA1n7GmpckK8y-38" value="" style="endArrow=none;html=1;rounded=0;fontSize=12;startSize=8;endSize=8;curved=1;exitX=1;exitY=1;exitDx=0;exitDy=0;entryX=0;entryY=0.5;entryDx=0;entryDy=0;" parent="1" source="HW4Ws5UdA1n7GmpckK8y-10" target="HW4Ws5UdA1n7GmpckK8y-26" edge="1">
          <mxGeometry relative="1" as="geometry">
            <mxPoint x="161" y="-499" as="sourcePoint" />
            <mxPoint x="321" y="-499" as="targetPoint" />
          </mxGeometry>
        </mxCell>
        <mxCell id="HW4Ws5UdA1n7GmpckK8y-43" value="" style="endArrow=none;html=1;rounded=0;fontSize=12;startSize=8;endSize=8;curved=1;exitX=0.411;exitY=0.994;exitDx=0;exitDy=0;exitPerimeter=0;entryX=0.858;entryY=0.05;entryDx=0;entryDy=0;entryPerimeter=0;" parent="1" target="HW4Ws5UdA1n7GmpckK8y-6" edge="1">
          <mxGeometry relative="1" as="geometry">
            <mxPoint x="963.6340000000005" y="-463.192" as="sourcePoint" />
            <mxPoint x="321" y="-199" as="targetPoint" />
          </mxGeometry>
        </mxCell>
        <mxCell id="HW4Ws5UdA1n7GmpckK8y-44" value="" style="endArrow=none;html=1;rounded=0;fontSize=12;startSize=8;endSize=8;curved=1;exitX=0.5;exitY=1;exitDx=0;exitDy=0;entryX=0.75;entryY=0;entryDx=0;entryDy=0;" parent="1" target="HW4Ws5UdA1n7GmpckK8y-7" edge="1">
          <mxGeometry relative="1" as="geometry">
            <mxPoint x="534.9999999999995" y="-333.0000000000002" as="sourcePoint" />
            <mxPoint x="321" y="-199" as="targetPoint" />
          </mxGeometry>
        </mxCell>
        <mxCell id="HW4Ws5UdA1n7GmpckK8y-45" value="" style="endArrow=none;html=1;rounded=0;fontSize=12;startSize=8;endSize=8;curved=1;exitX=0.576;exitY=0.976;exitDx=0;exitDy=0;exitPerimeter=0;entryX=0;entryY=0;entryDx=0;entryDy=0;" parent="1" target="HW4Ws5UdA1n7GmpckK8y-8" edge="1">
          <mxGeometry relative="1" as="geometry">
            <mxPoint x="-50.50799999999981" y="-335.81600000000003" as="sourcePoint" />
            <mxPoint x="321" y="-199" as="targetPoint" />
          </mxGeometry>
        </mxCell>
        <mxCell id="HW4Ws5UdA1n7GmpckK8y-46" value="" style="endArrow=none;html=1;rounded=0;fontSize=12;startSize=8;endSize=8;curved=1;exitX=0.5;exitY=1;exitDx=0;exitDy=0;entryX=0.106;entryY=0.085;entryDx=0;entryDy=0;entryPerimeter=0;" parent="1" target="HW4Ws5UdA1n7GmpckK8y-9" edge="1">
          <mxGeometry relative="1" as="geometry">
            <mxPoint x="-404.5" y="-418" as="sourcePoint" />
            <mxPoint x="321" y="-199" as="targetPoint" />
          </mxGeometry>
        </mxCell>
        <mxCell id="HW4Ws5UdA1n7GmpckK8y-53" value="quiz" style="ellipse;whiteSpace=wrap;html=1;align=center;fillColor=#dae8fc;strokeColor=#6c8ebf;" parent="1" vertex="1">
          <mxGeometry x="1504" y="-78" width="92" height="35" as="geometry" />
        </mxCell>
        <mxCell id="HW4Ws5UdA1n7GmpckK8y-55" value="quiz2" style="ellipse;whiteSpace=wrap;html=1;align=center;fillColor=#dae8fc;strokeColor=#6c8ebf;" parent="1" vertex="1">
          <mxGeometry x="1557" y="-167" width="92" height="35" as="geometry" />
        </mxCell>
        <mxCell id="HW4Ws5UdA1n7GmpckK8y-56" value="quiz4" style="ellipse;whiteSpace=wrap;html=1;align=center;fillColor=#dae8fc;strokeColor=#6c8ebf;" parent="1" vertex="1">
          <mxGeometry x="1669" y="-71" width="92" height="35" as="geometry" />
        </mxCell>
        <mxCell id="HW4Ws5UdA1n7GmpckK8y-57" value="quiz3" style="ellipse;whiteSpace=wrap;html=1;align=center;fillColor=#dae8fc;strokeColor=#6c8ebf;" parent="1" vertex="1">
          <mxGeometry x="1631" y="-132" width="92" height="35" as="geometry" />
        </mxCell>
        <mxCell id="HW4Ws5UdA1n7GmpckK8y-59" value="T/P_hours" style="ellipse;whiteSpace=wrap;html=1;align=center;fillColor=#dae8fc;strokeColor=#6c8ebf;" parent="1" vertex="1">
          <mxGeometry x="-72.5" y="36.5" width="92" height="35" as="geometry" />
        </mxCell>
        <mxCell id="HW4Ws5UdA1n7GmpckK8y-60" value="course_type" style="ellipse;whiteSpace=wrap;html=1;align=center;fillColor=#dae8fc;strokeColor=#6c8ebf;" parent="1" vertex="1">
          <mxGeometry x="-249" y="63" width="92" height="35" as="geometry" />
        </mxCell>
        <mxCell id="HW4Ws5UdA1n7GmpckK8y-61" value="course_name" style="ellipse;whiteSpace=wrap;html=1;align=center;fillColor=#dae8fc;strokeColor=#6c8ebf;" parent="1" vertex="1">
          <mxGeometry x="-309" y="1" width="92" height="35" as="geometry" />
        </mxCell>
        <mxCell id="HW4Ws5UdA1n7GmpckK8y-62" value="credit" style="ellipse;whiteSpace=wrap;html=1;align=center;fillColor=#dae8fc;strokeColor=#6c8ebf;" parent="1" vertex="1">
          <mxGeometry x="-52" y="-29.5" width="92" height="35" as="geometry" />
        </mxCell>
        <mxCell id="HW4Ws5UdA1n7GmpckK8y-64" value="" style="endArrow=none;html=1;rounded=0;fontSize=12;startSize=8;endSize=8;curved=1;exitX=1;exitY=0.75;exitDx=0;exitDy=0;entryX=0;entryY=0.5;entryDx=0;entryDy=0;" parent="1" source="HW4Ws5UdA1n7GmpckK8y-5" target="HW4Ws5UdA1n7GmpckK8y-59" edge="1">
          <mxGeometry relative="1" as="geometry">
            <mxPoint x="161" y="1" as="sourcePoint" />
            <mxPoint x="321" y="1" as="targetPoint" />
          </mxGeometry>
        </mxCell>
        <mxCell id="HW4Ws5UdA1n7GmpckK8y-65" value="" style="endArrow=none;html=1;rounded=0;fontSize=12;startSize=8;endSize=8;curved=1;exitX=0;exitY=0.5;exitDx=0;exitDy=0;" parent="1" source="HW4Ws5UdA1n7GmpckK8y-62" edge="1">
          <mxGeometry relative="1" as="geometry">
            <mxPoint x="161" y="1" as="sourcePoint" />
            <mxPoint x="-92" y="-10" as="targetPoint" />
          </mxGeometry>
        </mxCell>
        <mxCell id="HW4Ws5UdA1n7GmpckK8y-66" value="" style="endArrow=none;html=1;rounded=0;fontSize=12;startSize=8;endSize=8;curved=1;exitX=1;exitY=0;exitDx=0;exitDy=0;entryX=0.5;entryY=1;entryDx=0;entryDy=0;" parent="1" source="HW4Ws5UdA1n7GmpckK8y-60" target="HW4Ws5UdA1n7GmpckK8y-5" edge="1">
          <mxGeometry relative="1" as="geometry">
            <mxPoint x="161" y="1" as="sourcePoint" />
            <mxPoint x="321" y="1" as="targetPoint" />
          </mxGeometry>
        </mxCell>
        <mxCell id="HW4Ws5UdA1n7GmpckK8y-67" value="" style="endArrow=none;html=1;rounded=0;fontSize=12;startSize=8;endSize=8;curved=1;entryX=0;entryY=0.25;entryDx=0;entryDy=0;exitX=0.5;exitY=1;exitDx=0;exitDy=0;" parent="1" source="HW4Ws5UdA1n7GmpckK8y-69" target="HW4Ws5UdA1n7GmpckK8y-5" edge="1">
          <mxGeometry relative="1" as="geometry">
            <mxPoint x="-249" y="-126" as="sourcePoint" />
            <mxPoint x="321" y="1" as="targetPoint" />
          </mxGeometry>
        </mxCell>
        <mxCell id="HW4Ws5UdA1n7GmpckK8y-68" value="" style="endArrow=none;html=1;rounded=0;fontSize=12;startSize=8;endSize=8;curved=1;exitX=1;exitY=0.5;exitDx=0;exitDy=0;entryX=0;entryY=0.5;entryDx=0;entryDy=0;" parent="1" source="HW4Ws5UdA1n7GmpckK8y-61" target="HW4Ws5UdA1n7GmpckK8y-5" edge="1">
          <mxGeometry relative="1" as="geometry">
            <mxPoint x="161" y="1" as="sourcePoint" />
            <mxPoint x="321" y="1" as="targetPoint" />
          </mxGeometry>
        </mxCell>
        <mxCell id="HW4Ws5UdA1n7GmpckK8y-69" value="course_code" style="ellipse;whiteSpace=wrap;html=1;align=center;fontStyle=4;fillColor=#dae8fc;strokeColor=#6c8ebf;" parent="1" vertex="1">
          <mxGeometry x="-321" y="-89" width="93" height="34" as="geometry" />
        </mxCell>
        <mxCell id="HW4Ws5UdA1n7GmpckK8y-70" value="total_mark" style="ellipse;whiteSpace=wrap;html=1;align=center;fillColor=#dae8fc;strokeColor=#6c8ebf;" parent="1" vertex="1">
          <mxGeometry x="1528" y="107" width="92" height="35" as="geometry" />
        </mxCell>
        <mxCell id="HW4Ws5UdA1n7GmpckK8y-71" value="finalexam_mark" style="ellipse;whiteSpace=wrap;html=1;align=center;fillColor=#dae8fc;strokeColor=#6c8ebf;" parent="1" vertex="1">
          <mxGeometry x="1340.5" y="98" width="92" height="35" as="geometry" />
        </mxCell>
        <mxCell id="HW4Ws5UdA1n7GmpckK8y-72" value="midexam_&lt;div&gt;mark&lt;/div&gt;" style="ellipse;whiteSpace=wrap;html=1;align=center;fillColor=#d5e8d4;strokeColor=#82b366;" parent="1" vertex="1">
          <mxGeometry x="1565" y="50" width="92" height="35" as="geometry" />
        </mxCell>
        <mxCell id="HW4Ws5UdA1n7GmpckK8y-73" value="assignment_&lt;div&gt;marks&lt;/div&gt;" style="ellipse;whiteSpace=wrap;html=1;align=center;fillColor=#dae8fc;strokeColor=#6c8ebf;" parent="1" vertex="1">
          <mxGeometry x="1551" y="-22.5" width="92" height="35" as="geometry" />
        </mxCell>
        <mxCell id="HW4Ws5UdA1n7GmpckK8y-74" value="grade" style="ellipse;whiteSpace=wrap;html=1;align=center;fillColor=#dae8fc;strokeColor=#6c8ebf;" parent="1" vertex="1">
          <mxGeometry x="1225" y="-39" width="92" height="35" as="geometry" />
        </mxCell>
        <mxCell id="HW4Ws5UdA1n7GmpckK8y-75" value="" style="endArrow=none;html=1;rounded=0;fontSize=12;startSize=8;endSize=8;curved=1;entryX=0.433;entryY=0.971;entryDx=0;entryDy=0;entryPerimeter=0;exitX=0.635;exitY=0.026;exitDx=0;exitDy=0;exitPerimeter=0;" parent="1" source="HW4Ws5UdA1n7GmpckK8y-53" target="HW4Ws5UdA1n7GmpckK8y-57" edge="1">
          <mxGeometry relative="1" as="geometry">
            <mxPoint x="241" y="-135" as="sourcePoint" />
            <mxPoint x="268" y="-185" as="targetPoint" />
          </mxGeometry>
        </mxCell>
        <mxCell id="HW4Ws5UdA1n7GmpckK8y-76" value="" style="endArrow=none;html=1;rounded=0;fontSize=12;startSize=8;endSize=8;curved=1;exitX=0.424;exitY=0.04;exitDx=0;exitDy=0;exitPerimeter=0;entryX=0.897;entryY=1.025;entryDx=0;entryDy=0;entryPerimeter=0;" parent="1" source="HW4Ws5UdA1n7GmpckK8y-70" target="HW4Ws5UdA1n7GmpckK8y-4" edge="1">
          <mxGeometry relative="1" as="geometry">
            <mxPoint x="161" y="-99" as="sourcePoint" />
            <mxPoint x="321" y="-99" as="targetPoint" />
          </mxGeometry>
        </mxCell>
        <mxCell id="HW4Ws5UdA1n7GmpckK8y-78" value="" style="endArrow=none;html=1;rounded=0;fontSize=12;startSize=8;endSize=8;curved=1;exitX=1;exitY=0.5;exitDx=0;exitDy=0;entryX=0;entryY=0.5;entryDx=0;entryDy=0;" parent="1" source="HW4Ws5UdA1n7GmpckK8y-4" target="HW4Ws5UdA1n7GmpckK8y-72" edge="1">
          <mxGeometry relative="1" as="geometry">
            <mxPoint x="161" y="-99" as="sourcePoint" />
            <mxPoint x="321" y="-99" as="targetPoint" />
          </mxGeometry>
        </mxCell>
        <mxCell id="HW4Ws5UdA1n7GmpckK8y-79" value="" style="endArrow=none;html=1;rounded=0;fontSize=12;startSize=8;endSize=8;curved=1;entryX=0;entryY=0.5;entryDx=0;entryDy=0;exitX=1;exitY=0.5;exitDx=0;exitDy=0;" parent="1" source="HW4Ws5UdA1n7GmpckK8y-4" target="HW4Ws5UdA1n7GmpckK8y-73" edge="1">
          <mxGeometry relative="1" as="geometry">
            <mxPoint x="161" y="-99" as="sourcePoint" />
            <mxPoint x="321" y="-99" as="targetPoint" />
          </mxGeometry>
        </mxCell>
        <mxCell id="HW4Ws5UdA1n7GmpckK8y-80" value="" style="endArrow=none;html=1;rounded=0;fontSize=12;startSize=8;endSize=8;curved=1;entryX=0.869;entryY=0.063;entryDx=0;entryDy=0;entryPerimeter=0;" parent="1" source="HW4Ws5UdA1n7GmpckK8y-53" target="HW4Ws5UdA1n7GmpckK8y-4" edge="1">
          <mxGeometry relative="1" as="geometry">
            <mxPoint x="232" y="-100" as="sourcePoint" />
            <mxPoint x="321" y="-99" as="targetPoint" />
          </mxGeometry>
        </mxCell>
        <mxCell id="HW4Ws5UdA1n7GmpckK8y-81" value="" style="endArrow=none;html=1;rounded=0;fontSize=12;startSize=8;endSize=8;curved=1;exitX=1;exitY=0.5;exitDx=0;exitDy=0;entryX=0;entryY=0.5;entryDx=0;entryDy=0;" parent="1" source="HW4Ws5UdA1n7GmpckK8y-74" target="HW4Ws5UdA1n7GmpckK8y-4" edge="1">
          <mxGeometry relative="1" as="geometry">
            <mxPoint x="161" y="-99" as="sourcePoint" />
            <mxPoint x="321" y="-99" as="targetPoint" />
          </mxGeometry>
        </mxCell>
        <mxCell id="HW4Ws5UdA1n7GmpckK8y-85" value="" style="endArrow=none;html=1;rounded=0;fontSize=12;startSize=8;endSize=8;curved=1;exitX=0;exitY=1;exitDx=0;exitDy=0;entryX=1;entryY=0.329;entryDx=0;entryDy=0;entryPerimeter=0;" parent="1" source="HW4Ws5UdA1n7GmpckK8y-56" target="HW4Ws5UdA1n7GmpckK8y-53" edge="1">
          <mxGeometry relative="1" as="geometry">
            <mxPoint x="161" y="-99" as="sourcePoint" />
            <mxPoint x="321" y="-99" as="targetPoint" />
          </mxGeometry>
        </mxCell>
        <mxCell id="HW4Ws5UdA1n7GmpckK8y-86" value="" style="endArrow=none;html=1;rounded=0;fontSize=12;startSize=8;endSize=8;curved=1;exitX=0;exitY=1;exitDx=0;exitDy=0;entryX=0.348;entryY=0.014;entryDx=0;entryDy=0;entryPerimeter=0;" parent="1" source="HW4Ws5UdA1n7GmpckK8y-55" target="HW4Ws5UdA1n7GmpckK8y-53" edge="1">
          <mxGeometry relative="1" as="geometry">
            <mxPoint x="161" y="-99" as="sourcePoint" />
            <mxPoint x="206" y="-135" as="targetPoint" />
          </mxGeometry>
        </mxCell>
        <mxCell id="HW4Ws5UdA1n7GmpckK8y-87" value="" style="endArrow=none;html=1;rounded=0;fontSize=12;startSize=8;endSize=8;curved=1;exitX=0.5;exitY=1;exitDx=0;exitDy=0;entryX=0;entryY=0.5;entryDx=0;entryDy=0;" parent="1" source="HW4Ws5UdA1n7GmpckK8y-58" target="HW4Ws5UdA1n7GmpckK8y-53" edge="1">
          <mxGeometry relative="1" as="geometry">
            <mxPoint x="161" y="-99" as="sourcePoint" />
            <mxPoint x="321" y="-99" as="targetPoint" />
          </mxGeometry>
        </mxCell>
        <mxCell id="HW4Ws5UdA1n7GmpckK8y-90" value="status" style="ellipse;whiteSpace=wrap;html=1;align=center;fillColor=#dae8fc;strokeColor=#6c8ebf;" parent="1" vertex="1">
          <mxGeometry x="777" y="-163" width="92" height="35" as="geometry" />
        </mxCell>
        <mxCell id="HW4Ws5UdA1n7GmpckK8y-91" value="date" style="ellipse;whiteSpace=wrap;html=1;align=center;fillColor=#dae8fc;strokeColor=#6c8ebf;" parent="1" vertex="1">
          <mxGeometry x="664" y="-157" width="92" height="35" as="geometry" />
        </mxCell>
        <mxCell id="HW4Ws5UdA1n7GmpckK8y-92" value="" style="endArrow=none;html=1;rounded=0;fontSize=12;startSize=8;endSize=8;curved=1;entryX=0.5;entryY=1;entryDx=0;entryDy=0;exitX=0.25;exitY=0;exitDx=0;exitDy=0;" parent="1" source="HW4Ws5UdA1n7GmpckK8y-3" target="HW4Ws5UdA1n7GmpckK8y-91" edge="1">
          <mxGeometry relative="1" as="geometry">
            <mxPoint x="152" y="-11" as="sourcePoint" />
            <mxPoint x="312" y="-11" as="targetPoint" />
          </mxGeometry>
        </mxCell>
        <mxCell id="HW4Ws5UdA1n7GmpckK8y-93" value="" style="endArrow=none;html=1;rounded=0;fontSize=12;startSize=8;endSize=8;curved=1;entryX=0.5;entryY=1;entryDx=0;entryDy=0;exitX=0.84;exitY=0;exitDx=0;exitDy=0;exitPerimeter=0;" parent="1" source="HW4Ws5UdA1n7GmpckK8y-3" target="HW4Ws5UdA1n7GmpckK8y-90" edge="1">
          <mxGeometry relative="1" as="geometry">
            <mxPoint x="152" y="-11" as="sourcePoint" />
            <mxPoint x="312" y="-11" as="targetPoint" />
          </mxGeometry>
        </mxCell>
        <mxCell id="HW4Ws5UdA1n7GmpckK8y-96" value="" style="endArrow=none;html=1;rounded=0;fontSize=12;startSize=8;endSize=8;curved=1;entryX=0;entryY=0.5;entryDx=0;entryDy=0;exitX=1;exitY=0.75;exitDx=0;exitDy=0;" parent="1" source="HW4Ws5UdA1n7GmpckK8y-3" edge="1">
          <mxGeometry relative="1" as="geometry">
            <mxPoint x="760" y="-139" as="sourcePoint" />
            <mxPoint x="858" y="-35" as="targetPoint" />
          </mxGeometry>
        </mxCell>
        <mxCell id="HW4Ws5UdA1n7GmpckK8y-98" value="status" style="ellipse;whiteSpace=wrap;html=1;align=center;fillColor=#dae8fc;strokeColor=#6c8ebf;" parent="1" vertex="1">
          <mxGeometry x="925" y="473" width="100" height="40" as="geometry" />
        </mxCell>
        <mxCell id="HW4Ws5UdA1n7GmpckK8y-100" value="reason" style="ellipse;whiteSpace=wrap;html=1;align=center;fillColor=#dae8fc;strokeColor=#6c8ebf;" parent="1" vertex="1">
          <mxGeometry x="741" y="599" width="96" height="39" as="geometry" />
        </mxCell>
        <mxCell id="HW4Ws5UdA1n7GmpckK8y-101" value="submission_&lt;div&gt;date&lt;/div&gt;" style="ellipse;whiteSpace=wrap;html=1;align=center;fillColor=#dae8fc;strokeColor=#6c8ebf;" parent="1" vertex="1">
          <mxGeometry x="922" y="607" width="100" height="40" as="geometry" />
        </mxCell>
        <mxCell id="HW4Ws5UdA1n7GmpckK8y-103" value="" style="endArrow=none;html=1;rounded=0;fontSize=12;startSize=8;endSize=8;curved=1;entryX=0.359;entryY=1.109;entryDx=0;entryDy=0;exitX=0;exitY=0;exitDx=0;exitDy=0;entryPerimeter=0;" parent="1" source="HW4Ws5UdA1n7GmpckK8y-1" target="HW4Ws5UdA1n7GmpckK8y-118" edge="1">
          <mxGeometry relative="1" as="geometry">
            <mxPoint x="283" y="-11" as="sourcePoint" />
            <mxPoint x="681" y="59" as="targetPoint" />
          </mxGeometry>
        </mxCell>
        <mxCell id="HW4Ws5UdA1n7GmpckK8y-104" value="" style="endArrow=none;html=1;rounded=0;fontSize=12;startSize=8;endSize=8;curved=1;entryX=0;entryY=1;entryDx=0;entryDy=0;exitX=0.596;exitY=-0.034;exitDx=0;exitDy=0;exitPerimeter=0;" parent="1" source="HW4Ws5UdA1n7GmpckK8y-100" target="HW4Ws5UdA1n7GmpckK8y-1" edge="1">
          <mxGeometry relative="1" as="geometry">
            <mxPoint x="283" y="-11" as="sourcePoint" />
            <mxPoint x="443" y="-11" as="targetPoint" />
          </mxGeometry>
        </mxCell>
        <mxCell id="HW4Ws5UdA1n7GmpckK8y-105" value="" style="endArrow=none;html=1;rounded=0;fontSize=12;startSize=8;endSize=8;curved=1;entryX=0;entryY=0;entryDx=0;entryDy=0;exitX=0.75;exitY=1;exitDx=0;exitDy=0;" parent="1" source="HW4Ws5UdA1n7GmpckK8y-1" target="HW4Ws5UdA1n7GmpckK8y-101" edge="1">
          <mxGeometry relative="1" as="geometry">
            <mxPoint x="283" y="-11" as="sourcePoint" />
            <mxPoint x="443" y="-11" as="targetPoint" />
          </mxGeometry>
        </mxCell>
        <mxCell id="HW4Ws5UdA1n7GmpckK8y-109" value="" style="endArrow=none;html=1;rounded=0;fontSize=12;startSize=8;endSize=8;curved=1;entryX=0;entryY=1;entryDx=0;entryDy=0;exitX=1;exitY=0.25;exitDx=0;exitDy=0;" parent="1" source="HW4Ws5UdA1n7GmpckK8y-1" target="HW4Ws5UdA1n7GmpckK8y-98" edge="1">
          <mxGeometry relative="1" as="geometry">
            <mxPoint x="283" y="-11" as="sourcePoint" />
            <mxPoint x="443" y="-11" as="targetPoint" />
          </mxGeometry>
        </mxCell>
        <mxCell id="HW4Ws5UdA1n7GmpckK8y-110" value="start_time" style="ellipse;whiteSpace=wrap;html=1;align=center;fillColor=#dae8fc;strokeColor=#6c8ebf;" parent="1" vertex="1">
          <mxGeometry x="314" y="171" width="92" height="35" as="geometry" />
        </mxCell>
        <mxCell id="HW4Ws5UdA1n7GmpckK8y-112" value="posted_by" style="ellipse;whiteSpace=wrap;html=1;align=center;fillColor=#dae8fc;strokeColor=#6c8ebf;" parent="1" vertex="1">
          <mxGeometry x="-321" y="210" width="92" height="35" as="geometry" />
        </mxCell>
        <mxCell id="HW4Ws5UdA1n7GmpckK8y-113" value="content" style="ellipse;whiteSpace=wrap;html=1;align=center;fillColor=#dae8fc;strokeColor=#6c8ebf;" parent="1" vertex="1">
          <mxGeometry x="-334" y="113" width="92" height="35" as="geometry" />
        </mxCell>
        <mxCell id="HW4Ws5UdA1n7GmpckK8y-114" value="title" style="ellipse;whiteSpace=wrap;html=1;align=center;fillColor=#dae8fc;strokeColor=#6c8ebf;" parent="1" vertex="1">
          <mxGeometry x="-515" y="72" width="92" height="35" as="geometry" />
        </mxCell>
        <mxCell id="HW4Ws5UdA1n7GmpckK8y-116" value="end_time" style="ellipse;whiteSpace=wrap;html=1;align=center;fillColor=#dae8fc;strokeColor=#6c8ebf;" parent="1" vertex="1">
          <mxGeometry x="385" y="221" width="92" height="35" as="geometry" />
        </mxCell>
        <mxCell id="HW4Ws5UdA1n7GmpckK8y-117" value="notice_id" style="ellipse;whiteSpace=wrap;html=1;align=center;fontStyle=4;fillColor=#dae8fc;strokeColor=#6c8ebf;" parent="1" vertex="1">
          <mxGeometry x="-573" y="123" width="100" height="40" as="geometry" />
        </mxCell>
        <mxCell id="HW4Ws5UdA1n7GmpckK8y-118" value="medical_id" style="ellipse;whiteSpace=wrap;html=1;align=center;fontStyle=4;fillColor=#dae8fc;strokeColor=#6c8ebf;" parent="1" vertex="1">
          <mxGeometry x="730" y="459" width="100" height="40" as="geometry" />
        </mxCell>
        <mxCell id="HW4Ws5UdA1n7GmpckK8y-119" value="venue" style="ellipse;whiteSpace=wrap;html=1;align=center;fillColor=#dae8fc;strokeColor=#6c8ebf;" parent="1" vertex="1">
          <mxGeometry x="379" y="289" width="92" height="35" as="geometry" />
        </mxCell>
        <mxCell id="HW4Ws5UdA1n7GmpckK8y-120" value="" style="endArrow=none;html=1;rounded=0;fontSize=12;startSize=8;endSize=8;curved=1;exitX=0.73;exitY=0.914;exitDx=0;exitDy=0;exitPerimeter=0;entryX=0;entryY=0.25;entryDx=0;entryDy=0;" parent="1" source="HW4Ws5UdA1n7GmpckK8y-117" target="HW4Ws5UdA1n7GmpckK8y-11" edge="1">
          <mxGeometry relative="1" as="geometry">
            <mxPoint x="-56" y="274" as="sourcePoint" />
            <mxPoint x="-386" y="159" as="targetPoint" />
          </mxGeometry>
        </mxCell>
        <mxCell id="HW4Ws5UdA1n7GmpckK8y-127" value="" style="endArrow=none;html=1;rounded=0;fontSize=12;startSize=8;endSize=8;curved=1;exitX=0.5;exitY=1;exitDx=0;exitDy=0;entryX=0.5;entryY=0;entryDx=0;entryDy=0;" parent="1" source="HW4Ws5UdA1n7GmpckK8y-114" target="HW4Ws5UdA1n7GmpckK8y-11" edge="1">
          <mxGeometry relative="1" as="geometry">
            <mxPoint x="-56" y="274" as="sourcePoint" />
            <mxPoint x="104" y="274" as="targetPoint" />
          </mxGeometry>
        </mxCell>
        <mxCell id="HW4Ws5UdA1n7GmpckK8y-129" value="" style="endArrow=none;html=1;rounded=0;fontSize=12;startSize=8;endSize=8;curved=1;entryX=0.025;entryY=0.25;entryDx=0;entryDy=0;entryPerimeter=0;exitX=0.833;exitY=1.014;exitDx=0;exitDy=0;exitPerimeter=0;" parent="1" source="HW4Ws5UdA1n7GmpckK8y-2" target="HW4Ws5UdA1n7GmpckK8y-119" edge="1">
          <mxGeometry relative="1" as="geometry">
            <mxPoint x="-56" y="274" as="sourcePoint" />
            <mxPoint x="104" y="274" as="targetPoint" />
          </mxGeometry>
        </mxCell>
        <mxCell id="HW4Ws5UdA1n7GmpckK8y-130" value="" style="endArrow=none;html=1;rounded=0;fontSize=12;startSize=8;endSize=8;curved=1;entryX=0;entryY=0.5;entryDx=0;entryDy=0;exitX=1;exitY=0.5;exitDx=0;exitDy=0;" parent="1" source="HW4Ws5UdA1n7GmpckK8y-2" target="HW4Ws5UdA1n7GmpckK8y-116" edge="1">
          <mxGeometry relative="1" as="geometry">
            <mxPoint x="-56" y="274" as="sourcePoint" />
            <mxPoint x="104" y="274" as="targetPoint" />
          </mxGeometry>
        </mxCell>
        <mxCell id="HW4Ws5UdA1n7GmpckK8y-131" value="" style="endArrow=none;html=1;rounded=0;fontSize=12;startSize=8;endSize=8;curved=1;entryX=0.229;entryY=0.989;entryDx=0;entryDy=0;entryPerimeter=0;exitX=0.75;exitY=0;exitDx=0;exitDy=0;" parent="1" source="HW4Ws5UdA1n7GmpckK8y-2" target="HW4Ws5UdA1n7GmpckK8y-110" edge="1">
          <mxGeometry relative="1" as="geometry">
            <mxPoint x="-56" y="274" as="sourcePoint" />
            <mxPoint x="104" y="274" as="targetPoint" />
          </mxGeometry>
        </mxCell>
        <mxCell id="HW4Ws5UdA1n7GmpckK8y-132" value="" style="endArrow=none;html=1;rounded=0;fontSize=12;startSize=8;endSize=8;curved=1;entryX=0.5;entryY=1;entryDx=0;entryDy=0;exitX=0;exitY=0;exitDx=0;exitDy=0;" parent="1" source="HW4Ws5UdA1n7GmpckK8y-2" edge="1">
          <mxGeometry relative="1" as="geometry">
            <mxPoint x="-56" y="274" as="sourcePoint" />
            <mxPoint x="242" y="206" as="targetPoint" />
          </mxGeometry>
        </mxCell>
        <mxCell id="HW4Ws5UdA1n7GmpckK8y-133" value="" style="endArrow=none;html=1;rounded=0;fontSize=12;startSize=8;endSize=8;curved=1;exitX=1;exitY=1;exitDx=0;exitDy=0;entryX=0.05;entryY=0.184;entryDx=0;entryDy=0;entryPerimeter=0;" parent="1" source="HW4Ws5UdA1n7GmpckK8y-11" target="HW4Ws5UdA1n7GmpckK8y-112" edge="1">
          <mxGeometry relative="1" as="geometry">
            <mxPoint x="-56" y="274" as="sourcePoint" />
            <mxPoint x="104" y="274" as="targetPoint" />
          </mxGeometry>
        </mxCell>
        <mxCell id="HW4Ws5UdA1n7GmpckK8y-134" value="" style="endArrow=none;html=1;rounded=0;fontSize=12;startSize=8;endSize=8;curved=1;exitX=0;exitY=1;exitDx=0;exitDy=0;entryX=1;entryY=0.15;entryDx=0;entryDy=0;entryPerimeter=0;" parent="1" source="HW4Ws5UdA1n7GmpckK8y-113" target="HW4Ws5UdA1n7GmpckK8y-11" edge="1">
          <mxGeometry relative="1" as="geometry">
            <mxPoint x="-56" y="274" as="sourcePoint" />
            <mxPoint x="-287" y="152" as="targetPoint" />
          </mxGeometry>
        </mxCell>
        <mxCell id="HW4Ws5UdA1n7GmpckK8y-136" value="sees" style="shape=rhombus;perimeter=rhombusPerimeter;whiteSpace=wrap;html=1;align=center;fillColor=#ffe6cc;strokeColor=#d79b00;" parent="1" vertex="1">
          <mxGeometry x="662" y="-274" width="105" height="60" as="geometry" />
        </mxCell>
        <mxCell id="HW4Ws5UdA1n7GmpckK8y-145" value="" style="endArrow=none;html=1;rounded=0;fontSize=12;startSize=8;endSize=8;curved=1;entryX=0;entryY=0.25;entryDx=0;entryDy=0;exitX=1;exitY=0.5;exitDx=0;exitDy=0;" parent="1" source="HW4Ws5UdA1n7GmpckK8y-149" target="HW4Ws5UdA1n7GmpckK8y-7" edge="1">
          <mxGeometry relative="1" as="geometry">
            <mxPoint x="124" y="-290" as="sourcePoint" />
            <mxPoint x="284" y="-290" as="targetPoint" />
          </mxGeometry>
        </mxCell>
        <mxCell id="HW4Ws5UdA1n7GmpckK8y-147" value="N" style="resizable=0;html=1;whiteSpace=wrap;align=right;verticalAlign=bottom;" parent="HW4Ws5UdA1n7GmpckK8y-145" connectable="0" vertex="1">
          <mxGeometry x="1" relative="1" as="geometry">
            <mxPoint x="-19" y="-12" as="offset" />
          </mxGeometry>
        </mxCell>
        <mxCell id="HW4Ws5UdA1n7GmpckK8y-150" value="" style="endArrow=none;html=1;rounded=0;fontSize=12;startSize=8;endSize=8;curved=1;entryX=0;entryY=0.5;entryDx=0;entryDy=0;exitX=1.022;exitY=0.105;exitDx=0;exitDy=0;exitPerimeter=0;" parent="1" source="HW4Ws5UdA1n7GmpckK8y-8" target="HW4Ws5UdA1n7GmpckK8y-149" edge="1">
          <mxGeometry relative="1" as="geometry">
            <mxPoint x="126" y="-284" as="sourcePoint" />
            <mxPoint x="460" y="-284" as="targetPoint" />
          </mxGeometry>
        </mxCell>
        <mxCell id="HW4Ws5UdA1n7GmpckK8y-151" value="M" style="resizable=0;html=1;whiteSpace=wrap;align=left;verticalAlign=bottom;" parent="HW4Ws5UdA1n7GmpckK8y-150" connectable="0" vertex="1">
          <mxGeometry x="-1" relative="1" as="geometry">
            <mxPoint x="10" as="offset" />
          </mxGeometry>
        </mxCell>
        <mxCell id="HW4Ws5UdA1n7GmpckK8y-149" value="sees" style="shape=rhombus;perimeter=rhombusPerimeter;whiteSpace=wrap;html=1;align=center;fillColor=#ffe6cc;strokeColor=#d79b00;" parent="1" vertex="1">
          <mxGeometry x="184" y="-337" width="120" height="60" as="geometry" />
        </mxCell>
        <mxCell id="HW4Ws5UdA1n7GmpckK8y-165" value="" style="endArrow=none;html=1;rounded=0;fontSize=12;startSize=8;endSize=8;exitX=0.25;exitY=1;exitDx=0;exitDy=0;edgeStyle=orthogonalEdgeStyle;entryX=1;entryY=0.5;entryDx=0;entryDy=0;" parent="1" source="HW4Ws5UdA1n7GmpckK8y-384" target="HW4Ws5UdA1n7GmpckK8y-6" edge="1">
          <mxGeometry relative="1" as="geometry">
            <mxPoint x="-379" y="188" as="sourcePoint" />
            <mxPoint x="1066" y="-362" as="targetPoint" />
            <Array as="points">
              <mxPoint x="1066" y="-384" />
              <mxPoint x="980" y="-384" />
            </Array>
          </mxGeometry>
        </mxCell>
        <mxCell id="HW4Ws5UdA1n7GmpckK8y-167" value="N" style="resizable=0;html=1;whiteSpace=wrap;align=right;verticalAlign=bottom;" parent="HW4Ws5UdA1n7GmpckK8y-165" connectable="0" vertex="1">
          <mxGeometry x="1" relative="1" as="geometry">
            <mxPoint x="19" y="-6" as="offset" />
          </mxGeometry>
        </mxCell>
        <mxCell id="HW4Ws5UdA1n7GmpckK8y-172" value="" style="endArrow=none;html=1;rounded=0;fontSize=12;startSize=8;endSize=8;exitX=0.25;exitY=1;exitDx=0;exitDy=0;edgeStyle=orthogonalEdgeStyle;entryX=1;entryY=0.5;entryDx=0;entryDy=0;" parent="1" target="HW4Ws5UdA1n7GmpckK8y-171" edge="1">
          <mxGeometry relative="1" as="geometry">
            <mxPoint x="-379" y="188" as="sourcePoint" />
            <mxPoint x="980" y="-378" as="targetPoint" />
            <Array as="points">
              <mxPoint x="-400" y="188" />
              <mxPoint x="-400" y="402" />
              <mxPoint x="340" y="402" />
            </Array>
          </mxGeometry>
        </mxCell>
        <mxCell id="HW4Ws5UdA1n7GmpckK8y-173" value="M" style="resizable=0;html=1;whiteSpace=wrap;align=left;verticalAlign=bottom;" parent="HW4Ws5UdA1n7GmpckK8y-172" connectable="0" vertex="1">
          <mxGeometry x="-1" relative="1" as="geometry">
            <mxPoint x="-22" y="25" as="offset" />
          </mxGeometry>
        </mxCell>
        <mxCell id="HW4Ws5UdA1n7GmpckK8y-175" value="" style="endArrow=none;html=1;rounded=0;fontSize=12;startSize=8;endSize=8;curved=1;exitX=0.25;exitY=1;exitDx=0;exitDy=0;entryX=0.921;entryY=0.071;entryDx=0;entryDy=0;entryPerimeter=0;" parent="1" source="HW4Ws5UdA1n7GmpckK8y-9" target="HW4Ws5UdA1n7GmpckK8y-11" edge="1">
          <mxGeometry relative="1" as="geometry">
            <mxPoint x="-134" y="105" as="sourcePoint" />
            <mxPoint x="-387" y="135" as="targetPoint" />
          </mxGeometry>
        </mxCell>
        <mxCell id="HW4Ws5UdA1n7GmpckK8y-176" value="N" style="resizable=0;html=1;whiteSpace=wrap;align=right;verticalAlign=bottom;" parent="HW4Ws5UdA1n7GmpckK8y-175" connectable="0" vertex="1">
          <mxGeometry x="1" relative="1" as="geometry">
            <mxPoint x="-6" y="-8" as="offset" />
          </mxGeometry>
        </mxCell>
        <mxCell id="HW4Ws5UdA1n7GmpckK8y-178" value="maintanance" style="shape=rhombus;perimeter=rhombusPerimeter;whiteSpace=wrap;html=1;align=center;fillColor=#ffe6cc;strokeColor=#d79b00;" parent="1" vertex="1">
          <mxGeometry x="-447" y="-35" width="120" height="60" as="geometry" />
        </mxCell>
        <mxCell id="HW4Ws5UdA1n7GmpckK8y-179" value="1" style="text;html=1;align=center;verticalAlign=middle;resizable=0;points=[];autosize=1;strokeColor=none;fillColor=none;fontSize=16;" parent="1" vertex="1">
          <mxGeometry x="-385.5" y="-333.5" width="27" height="31" as="geometry" />
        </mxCell>
        <mxCell id="HW4Ws5UdA1n7GmpckK8y-180" value="" style="endArrow=none;html=1;rounded=0;fontSize=12;startSize=8;endSize=8;edgeStyle=orthogonalEdgeStyle;entryX=0.92;entryY=0.95;entryDx=0;entryDy=0;entryPerimeter=0;exitX=0.63;exitY=1.025;exitDx=0;exitDy=0;exitPerimeter=0;" parent="1" source="HW4Ws5UdA1n7GmpckK8y-2" target="HW4Ws5UdA1n7GmpckK8y-6" edge="1">
          <mxGeometry relative="1" as="geometry">
            <mxPoint x="293" y="253" as="sourcePoint" />
            <mxPoint x="983.6499999999995" y="-355" as="targetPoint" />
            <Array as="points">
              <mxPoint x="311" y="281" />
              <mxPoint x="311" y="336" />
              <mxPoint x="969" y="336" />
              <mxPoint x="969" y="-355" />
              <mxPoint x="972" y="-355" />
            </Array>
          </mxGeometry>
        </mxCell>
        <mxCell id="HW4Ws5UdA1n7GmpckK8y-182" value="N" style="resizable=0;html=1;whiteSpace=wrap;align=right;verticalAlign=bottom;" parent="HW4Ws5UdA1n7GmpckK8y-180" connectable="0" vertex="1">
          <mxGeometry x="1" relative="1" as="geometry">
            <mxPoint x="-666" y="661" as="offset" />
          </mxGeometry>
        </mxCell>
        <mxCell id="HW4Ws5UdA1n7GmpckK8y-190" value="1" style="text;html=1;align=center;verticalAlign=middle;resizable=0;points=[];autosize=1;strokeColor=none;fillColor=none;fontSize=16;" parent="1" vertex="1">
          <mxGeometry x="942" y="-358" width="27" height="31" as="geometry" />
        </mxCell>
        <mxCell id="HW4Ws5UdA1n7GmpckK8y-203" value="" style="endArrow=none;html=1;rounded=0;fontSize=12;startSize=8;endSize=8;exitX=0.5;exitY=1;exitDx=0;exitDy=0;edgeStyle=orthogonalEdgeStyle;entryX=0.145;entryY=0.985;entryDx=0;entryDy=0;entryPerimeter=0;" parent="1" source="HW4Ws5UdA1n7GmpckK8y-11" target="HW4Ws5UdA1n7GmpckK8y-210" edge="1">
          <mxGeometry relative="1" as="geometry">
            <mxPoint x="-428" y="188" as="sourcePoint" />
            <mxPoint x="535" y="417.9999999999998" as="targetPoint" />
            <Array as="points">
              <mxPoint x="-428" y="499" />
              <mxPoint x="514" y="499" />
              <mxPoint x="514" y="407" />
            </Array>
          </mxGeometry>
        </mxCell>
        <mxCell id="HW4Ws5UdA1n7GmpckK8y-204" value="M" style="resizable=0;html=1;whiteSpace=wrap;align=left;verticalAlign=bottom;" parent="HW4Ws5UdA1n7GmpckK8y-203" connectable="0" vertex="1">
          <mxGeometry x="-1" relative="1" as="geometry">
            <mxPoint x="-19" y="25" as="offset" />
          </mxGeometry>
        </mxCell>
        <mxCell id="HW4Ws5UdA1n7GmpckK8y-198" value="sees" style="shape=rhombus;perimeter=rhombusPerimeter;whiteSpace=wrap;html=1;align=center;fillColor=#ffe6cc;strokeColor=#d79b00;" parent="1" vertex="1">
          <mxGeometry x="86" y="469" width="120" height="60" as="geometry" />
        </mxCell>
        <mxCell id="HW4Ws5UdA1n7GmpckK8y-210" value="" style="shape=requiredInterface;html=1;verticalLabelPosition=bottom;sketch=0;" parent="1" vertex="1">
          <mxGeometry x="509" y="387" width="10" height="20" as="geometry" />
        </mxCell>
        <mxCell id="HW4Ws5UdA1n7GmpckK8y-216" value="" style="endArrow=none;html=1;rounded=0;fontSize=12;startSize=8;endSize=8;curved=1;entryX=0.5;entryY=1;entryDx=0;entryDy=0;" parent="1" target="HW4Ws5UdA1n7GmpckK8y-7" edge="1">
          <mxGeometry relative="1" as="geometry">
            <mxPoint x="507" y="-249" as="sourcePoint" />
            <mxPoint x="507" y="-278" as="targetPoint" />
          </mxGeometry>
        </mxCell>
        <mxCell id="HW4Ws5UdA1n7GmpckK8y-218" value="" style="endArrow=none;html=1;rounded=0;fontSize=12;startSize=8;endSize=8;curved=1;entryX=0.258;entryY=0.985;entryDx=0;entryDy=0;exitX=0.152;exitY=0.186;exitDx=0;exitDy=0;exitPerimeter=0;entryPerimeter=0;" parent="1" source="HW4Ws5UdA1n7GmpckK8y-210" target="HW4Ws5UdA1n7GmpckK8y-217" edge="1">
          <mxGeometry relative="1" as="geometry">
            <mxPoint x="532" y="394" as="sourcePoint" />
            <mxPoint x="530.48" y="-271.4" as="targetPoint" />
          </mxGeometry>
        </mxCell>
        <mxCell id="HW4Ws5UdA1n7GmpckK8y-217" value="" style="shape=requiredInterface;html=1;verticalLabelPosition=bottom;sketch=0;" parent="1" vertex="1">
          <mxGeometry x="509" y="321" width="10" height="20" as="geometry" />
        </mxCell>
        <mxCell id="HW4Ws5UdA1n7GmpckK8y-221" value="" style="endArrow=none;html=1;rounded=0;fontSize=12;startSize=8;endSize=8;edgeStyle=elbowEdgeStyle;exitX=1;exitY=0.5;exitDx=0;exitDy=0;" parent="1" source="HW4Ws5UdA1n7GmpckK8y-11" edge="1">
          <mxGeometry relative="1" as="geometry">
            <mxPoint x="-67" y="-34" as="sourcePoint" />
            <mxPoint x="57" y="-255" as="targetPoint" />
            <Array as="points">
              <mxPoint x="57" y="6" />
            </Array>
          </mxGeometry>
        </mxCell>
        <mxCell id="HW4Ws5UdA1n7GmpckK8y-222" value="M" style="resizable=0;html=1;whiteSpace=wrap;align=left;verticalAlign=bottom;" parent="HW4Ws5UdA1n7GmpckK8y-221" connectable="0" vertex="1">
          <mxGeometry x="-1" relative="1" as="geometry" />
        </mxCell>
        <mxCell id="HW4Ws5UdA1n7GmpckK8y-223" value="N" style="resizable=0;html=1;whiteSpace=wrap;align=right;verticalAlign=bottom;" parent="HW4Ws5UdA1n7GmpckK8y-221" connectable="0" vertex="1">
          <mxGeometry x="1" relative="1" as="geometry">
            <mxPoint x="-4" y="20" as="offset" />
          </mxGeometry>
        </mxCell>
        <mxCell id="HW4Ws5UdA1n7GmpckK8y-225" value="sees" style="shape=rhombus;perimeter=rhombusPerimeter;whiteSpace=wrap;html=1;align=center;fillColor=#ffe6cc;strokeColor=#d79b00;" parent="1" vertex="1">
          <mxGeometry x="-3" y="135.5" width="120" height="60" as="geometry" />
        </mxCell>
        <mxCell id="HW4Ws5UdA1n7GmpckK8y-227" value="" style="endArrow=none;html=1;rounded=0;fontSize=12;startSize=8;endSize=8;edgeStyle=elbowEdgeStyle;elbow=vertical;exitX=0.095;exitY=0.03;exitDx=0;exitDy=0;exitPerimeter=0;entryX=1.001;entryY=0.843;entryDx=0;entryDy=0;entryPerimeter=0;" parent="1" source="HW4Ws5UdA1n7GmpckK8y-409" target="HW4Ws5UdA1n7GmpckK8y-7" edge="1">
          <mxGeometry relative="1" as="geometry">
            <mxPoint x="569.5799999999999" y="-241.26999999999995" as="sourcePoint" />
            <mxPoint x="557" y="-284.73" as="targetPoint" />
            <Array as="points">
              <mxPoint x="564" y="-276" />
            </Array>
          </mxGeometry>
        </mxCell>
        <mxCell id="HW4Ws5UdA1n7GmpckK8y-229" value="N" style="resizable=0;html=1;whiteSpace=wrap;align=right;verticalAlign=bottom;" parent="HW4Ws5UdA1n7GmpckK8y-227" connectable="0" vertex="1">
          <mxGeometry x="1" relative="1" as="geometry">
            <mxPoint x="5" y="27" as="offset" />
          </mxGeometry>
        </mxCell>
        <mxCell id="HW4Ws5UdA1n7GmpckK8y-231" value="" style="endArrow=none;html=1;rounded=0;fontSize=12;startSize=8;endSize=8;exitX=1;exitY=0.75;exitDx=0;exitDy=0;edgeStyle=elbowEdgeStyle;elbow=vertical;entryX=-0.003;entryY=0.044;entryDx=0;entryDy=0;entryPerimeter=0;" parent="1" source="HW4Ws5UdA1n7GmpckK8y-2" target="HW4Ws5UdA1n7GmpckK8y-230" edge="1">
          <mxGeometry relative="1" as="geometry">
            <mxPoint x="351" y="270" as="sourcePoint" />
            <mxPoint x="577" y="270" as="targetPoint" />
            <Array as="points">
              <mxPoint x="469" y="270" />
            </Array>
          </mxGeometry>
        </mxCell>
        <mxCell id="HW4Ws5UdA1n7GmpckK8y-232" value="M" style="resizable=0;html=1;whiteSpace=wrap;align=left;verticalAlign=bottom;" parent="HW4Ws5UdA1n7GmpckK8y-231" connectable="0" vertex="1">
          <mxGeometry x="-1" relative="1" as="geometry">
            <mxPoint x="13" as="offset" />
          </mxGeometry>
        </mxCell>
        <mxCell id="HW4Ws5UdA1n7GmpckK8y-230" value="" style="shape=requiredInterface;html=1;verticalLabelPosition=bottom;sketch=0;direction=north;" parent="1" vertex="1">
          <mxGeometry x="499" y="262" width="21" height="10" as="geometry" />
        </mxCell>
        <mxCell id="HW4Ws5UdA1n7GmpckK8y-238" value="N" style="text;html=1;align=center;verticalAlign=middle;resizable=0;points=[];autosize=1;strokeColor=none;fillColor=none;fontSize=16;" parent="1" vertex="1">
          <mxGeometry x="471" y="-277" width="30" height="31" as="geometry" />
        </mxCell>
        <mxCell id="HW4Ws5UdA1n7GmpckK8y-240" value="" style="endArrow=none;html=1;rounded=0;fontSize=12;startSize=8;endSize=8;exitX=1;exitY=0.5;exitDx=0;exitDy=0;entryX=0;entryY=0.5;entryDx=0;entryDy=0;" parent="1" source="HW4Ws5UdA1n7GmpckK8y-248" edge="1">
          <mxGeometry relative="1" as="geometry">
            <mxPoint x="-123.22000000000003" y="186.94000000000005" as="sourcePoint" />
            <mxPoint x="251" y="264" as="targetPoint" />
          </mxGeometry>
        </mxCell>
        <mxCell id="HW4Ws5UdA1n7GmpckK8y-241" value="1" style="resizable=0;html=1;whiteSpace=wrap;align=right;verticalAlign=bottom;" parent="HW4Ws5UdA1n7GmpckK8y-240" connectable="0" vertex="1">
          <mxGeometry x="1" relative="1" as="geometry">
            <mxPoint x="-19" as="offset" />
          </mxGeometry>
        </mxCell>
        <mxCell id="HW4Ws5UdA1n7GmpckK8y-243" value="1" style="text;html=1;align=center;verticalAlign=middle;resizable=0;points=[];autosize=1;strokeColor=none;fillColor=none;fontSize=16;" parent="1" vertex="1">
          <mxGeometry x="-156.5" y="50" width="27" height="31" as="geometry" />
        </mxCell>
        <mxCell id="HW4Ws5UdA1n7GmpckK8y-245" value="" style="endArrow=none;html=1;rounded=0;fontSize=12;startSize=8;endSize=8;edgeStyle=elbowEdgeStyle;exitX=0.628;exitY=0.997;exitDx=0;exitDy=0;exitPerimeter=0;" parent="1" source="HW4Ws5UdA1n7GmpckK8y-5" target="HW4Ws5UdA1n7GmpckK8y-244" edge="1">
          <mxGeometry relative="1" as="geometry">
            <mxPoint x="-127" y="-57" as="sourcePoint" />
            <mxPoint x="251" y="260" as="targetPoint" />
            <Array as="points">
              <mxPoint x="-127" y="175" />
            </Array>
          </mxGeometry>
        </mxCell>
        <mxCell id="HW4Ws5UdA1n7GmpckK8y-244" value="" style="shape=requiredInterface;html=1;verticalLabelPosition=bottom;sketch=0;" parent="1" vertex="1">
          <mxGeometry x="-129.5" y="163" width="10" height="20" as="geometry" />
        </mxCell>
        <mxCell id="HW4Ws5UdA1n7GmpckK8y-251" value="" style="endArrow=none;html=1;rounded=0;fontSize=12;startSize=8;endSize=8;edgeStyle=elbowEdgeStyle;entryX=0.5;entryY=0;entryDx=0;entryDy=0;" parent="1" target="HW4Ws5UdA1n7GmpckK8y-248" edge="1">
          <mxGeometry relative="1" as="geometry">
            <mxPoint x="-130" y="182" as="sourcePoint" />
            <mxPoint x="251" y="264" as="targetPoint" />
            <Array as="points" />
          </mxGeometry>
        </mxCell>
        <mxCell id="HW4Ws5UdA1n7GmpckK8y-248" value="has" style="shape=rhombus;perimeter=rhombusPerimeter;whiteSpace=wrap;html=1;align=center;fillColor=#ffe6cc;strokeColor=#d79b00;" parent="1" vertex="1">
          <mxGeometry x="-184.5" y="230" width="120" height="60" as="geometry" />
        </mxCell>
        <mxCell id="HW4Ws5UdA1n7GmpckK8y-253" value="" style="endArrow=none;html=1;rounded=0;fontSize=12;startSize=8;endSize=8;edgeStyle=orthogonalEdgeStyle;exitX=0.16;exitY=0.999;exitDx=0;exitDy=0;elbow=vertical;entryX=0.25;entryY=1;entryDx=0;entryDy=0;exitPerimeter=0;" parent="1" source="HW4Ws5UdA1n7GmpckK8y-271" target="HW4Ws5UdA1n7GmpckK8y-2" edge="1">
          <mxGeometry relative="1" as="geometry">
            <mxPoint x="-412" y="-337.0000000000001" as="sourcePoint" />
            <mxPoint x="257" y="323" as="targetPoint" />
            <Array as="points" />
          </mxGeometry>
        </mxCell>
        <mxCell id="HW4Ws5UdA1n7GmpckK8y-254" value="N" style="resizable=0;html=1;whiteSpace=wrap;align=right;verticalAlign=bottom;" parent="HW4Ws5UdA1n7GmpckK8y-253" connectable="0" vertex="1">
          <mxGeometry x="1" relative="1" as="geometry">
            <mxPoint x="-7" y="22" as="offset" />
          </mxGeometry>
        </mxCell>
        <mxCell id="HW4Ws5UdA1n7GmpckK8y-255" value="1" style="text;html=1;align=center;verticalAlign=middle;resizable=0;points=[];autosize=1;strokeColor=none;fillColor=none;fontSize=16;" parent="1" vertex="1">
          <mxGeometry x="-443.5" y="-365.5" width="27" height="31" as="geometry" />
        </mxCell>
        <mxCell id="HW4Ws5UdA1n7GmpckK8y-257" value="" style="endArrow=none;html=1;rounded=0;fontSize=12;startSize=8;endSize=8;edgeStyle=orthogonalEdgeStyle;exitX=0.968;exitY=0.477;exitDx=0;exitDy=0;entryX=0;entryY=0;entryDx=0;entryDy=0;exitPerimeter=0;" parent="1" source="HW4Ws5UdA1n7GmpckK8y-256" target="HW4Ws5UdA1n7GmpckK8y-5" edge="1">
          <mxGeometry relative="1" as="geometry">
            <mxPoint x="-197" y="-233" as="sourcePoint" />
            <mxPoint x="-37" y="-233" as="targetPoint" />
            <Array as="points">
              <mxPoint x="-257" y="-176" />
              <mxPoint x="-257" y="-175" />
              <mxPoint x="-190" y="-175" />
            </Array>
          </mxGeometry>
        </mxCell>
        <mxCell id="HW4Ws5UdA1n7GmpckK8y-258" value="" style="endArrow=none;html=1;rounded=0;fontSize=12;startSize=8;endSize=8;exitX=1;exitY=0.5;exitDx=0;exitDy=0;entryX=0.5;entryY=0;entryDx=0;entryDy=0;edgeStyle=orthogonalEdgeStyle;" parent="1" source="HW4Ws5UdA1n7GmpckK8y-9" target="HW4Ws5UdA1n7GmpckK8y-256" edge="1">
          <mxGeometry relative="1" as="geometry">
            <mxPoint x="-348.5" y="-329" as="sourcePoint" />
            <mxPoint x="-191" y="-175" as="targetPoint" />
          </mxGeometry>
        </mxCell>
        <mxCell id="HW4Ws5UdA1n7GmpckK8y-256" value="maintain" style="shape=rhombus;perimeter=rhombusPerimeter;whiteSpace=wrap;html=1;align=center;fillColor=#ffe6cc;strokeColor=#d79b00;" parent="1" vertex="1">
          <mxGeometry x="-337" y="-205" width="120" height="60" as="geometry" />
        </mxCell>
        <mxCell id="HW4Ws5UdA1n7GmpckK8y-260" value="1" style="text;html=1;align=center;verticalAlign=middle;resizable=0;points=[];autosize=1;strokeColor=none;fillColor=none;fontSize=16;" parent="1" vertex="1">
          <mxGeometry x="-312.5" y="-372.5" width="27" height="31" as="geometry" />
        </mxCell>
        <mxCell id="HW4Ws5UdA1n7GmpckK8y-261" value="N" style="text;html=1;align=center;verticalAlign=middle;resizable=0;points=[];autosize=1;strokeColor=none;fillColor=none;fontSize=16;" parent="1" vertex="1">
          <mxGeometry x="-218" y="-48" width="30" height="31" as="geometry" />
        </mxCell>
        <mxCell id="HW4Ws5UdA1n7GmpckK8y-269" value="" style="endArrow=none;html=1;rounded=0;fontSize=12;startSize=8;endSize=8;edgeStyle=orthogonalEdgeStyle;exitX=0;exitY=0.5;exitDx=0;exitDy=0;elbow=vertical;entryX=0.285;entryY=0.024;entryDx=0;entryDy=0;entryPerimeter=0;" parent="1" target="HW4Ws5UdA1n7GmpckK8y-268" edge="1">
          <mxGeometry relative="1" as="geometry">
            <mxPoint x="-412" y="-337.0000000000001" as="sourcePoint" />
            <mxPoint x="276" y="280" as="targetPoint" />
            <Array as="points">
              <mxPoint x="-588" y="-337" />
              <mxPoint x="-588" y="351" />
            </Array>
          </mxGeometry>
        </mxCell>
        <mxCell id="HW4Ws5UdA1n7GmpckK8y-268" value="" style="shape=requiredInterface;html=1;verticalLabelPosition=bottom;sketch=0;direction=north;" parent="1" vertex="1">
          <mxGeometry x="-438" y="344" width="20" height="10" as="geometry" />
        </mxCell>
        <mxCell id="HW4Ws5UdA1n7GmpckK8y-272" value="" style="endArrow=none;html=1;rounded=0;fontSize=12;startSize=8;endSize=8;edgeStyle=orthogonalEdgeStyle;exitX=0.16;exitY=0.999;exitDx=0;exitDy=0;elbow=vertical;entryX=0.084;entryY=0.021;entryDx=0;entryDy=0;exitPerimeter=0;entryPerimeter=0;" parent="1" source="HW4Ws5UdA1n7GmpckK8y-268" target="HW4Ws5UdA1n7GmpckK8y-271" edge="1">
          <mxGeometry relative="1" as="geometry">
            <mxPoint x="-420" y="352" as="sourcePoint" />
            <mxPoint x="276" y="280" as="targetPoint" />
            <Array as="points" />
          </mxGeometry>
        </mxCell>
        <mxCell id="HW4Ws5UdA1n7GmpckK8y-271" value="" style="shape=requiredInterface;html=1;verticalLabelPosition=bottom;sketch=0;direction=north;" parent="1" vertex="1">
          <mxGeometry x="-408" y="344" width="20" height="10" as="geometry" />
        </mxCell>
        <mxCell id="HW4Ws5UdA1n7GmpckK8y-274" style="edgeStyle=none;curved=1;rounded=0;orthogonalLoop=1;jettySize=auto;html=1;exitX=1;exitY=1;exitDx=0;exitDy=0;fontSize=12;startSize=8;endSize=8;" parent="1" source="HW4Ws5UdA1n7GmpckK8y-98" target="HW4Ws5UdA1n7GmpckK8y-98" edge="1">
          <mxGeometry relative="1" as="geometry" />
        </mxCell>
        <mxCell id="HW4Ws5UdA1n7GmpckK8y-278" value="" style="endArrow=none;html=1;rounded=0;fontSize=12;startSize=8;endSize=8;entryX=0.366;entryY=0.933;entryDx=0;entryDy=0;exitX=0.448;exitY=0.021;exitDx=0;exitDy=0;exitPerimeter=0;entryPerimeter=0;" parent="1" source="HW4Ws5UdA1n7GmpckK8y-382" target="HW4Ws5UdA1n7GmpckK8y-3" edge="1">
          <mxGeometry relative="1" as="geometry">
            <mxPoint x="750" y="51" as="sourcePoint" />
            <mxPoint x="463" y="16" as="targetPoint" />
          </mxGeometry>
        </mxCell>
        <mxCell id="HW4Ws5UdA1n7GmpckK8y-281" value="" style="endArrow=none;html=1;rounded=0;fontSize=12;startSize=8;endSize=8;entryX=0;entryY=0.5;entryDx=0;entryDy=0;exitX=0.483;exitY=1.021;exitDx=0;exitDy=0;exitPerimeter=0;" parent="1" source="HW4Ws5UdA1n7GmpckK8y-289" target="HW4Ws5UdA1n7GmpckK8y-280" edge="1">
          <mxGeometry relative="1" as="geometry">
            <mxPoint x="-90" y="-66" as="sourcePoint" />
            <mxPoint x="763" y="70" as="targetPoint" />
          </mxGeometry>
        </mxCell>
        <mxCell id="HW4Ws5UdA1n7GmpckK8y-280" value="has" style="shape=rhombus;perimeter=rhombusPerimeter;whiteSpace=wrap;html=1;align=center;fillColor=#ffe6cc;strokeColor=#d79b00;" parent="1" vertex="1">
          <mxGeometry x="284" y="83" width="120" height="60" as="geometry" />
        </mxCell>
        <mxCell id="HW4Ws5UdA1n7GmpckK8y-282" value="1" style="text;html=1;align=center;verticalAlign=middle;resizable=0;points=[];autosize=1;strokeColor=none;fillColor=none;fontSize=16;" parent="1" vertex="1">
          <mxGeometry x="-106" y="36.5" width="27" height="31" as="geometry" />
        </mxCell>
        <mxCell id="HW4Ws5UdA1n7GmpckK8y-283" value="N" style="text;html=1;align=center;verticalAlign=middle;resizable=0;points=[];autosize=1;strokeColor=none;fillColor=none;fontSize=16;" parent="1" vertex="1">
          <mxGeometry x="767" y="-46" width="30" height="31" as="geometry" />
        </mxCell>
        <mxCell id="HW4Ws5UdA1n7GmpckK8y-285" value="" style="endArrow=none;html=1;rounded=0;fontSize=12;startSize=8;endSize=8;entryX=0.17;entryY=-0.053;entryDx=0;entryDy=0;exitX=0.111;exitY=0.992;exitDx=0;exitDy=0;entryPerimeter=0;exitPerimeter=0;" parent="1" source="HW4Ws5UdA1n7GmpckK8y-286" target="HW4Ws5UdA1n7GmpckK8y-284" edge="1">
          <mxGeometry relative="1" as="geometry">
            <mxPoint x="404" y="113" as="sourcePoint" />
            <mxPoint x="763" y="70" as="targetPoint" />
          </mxGeometry>
        </mxCell>
        <mxCell id="HW4Ws5UdA1n7GmpckK8y-284" value="" style="shape=requiredInterface;html=1;verticalLabelPosition=bottom;sketch=0;direction=north;" parent="1" vertex="1">
          <mxGeometry x="565" y="103" width="20" height="10" as="geometry" />
        </mxCell>
        <mxCell id="HW4Ws5UdA1n7GmpckK8y-288" value="" style="endArrow=none;html=1;rounded=0;fontSize=12;startSize=8;endSize=8;entryX=0.17;entryY=-0.053;entryDx=0;entryDy=0;exitX=1;exitY=0.5;exitDx=0;exitDy=0;entryPerimeter=0;" parent="1" source="HW4Ws5UdA1n7GmpckK8y-280" target="HW4Ws5UdA1n7GmpckK8y-286" edge="1">
          <mxGeometry relative="1" as="geometry">
            <mxPoint x="404" y="113" as="sourcePoint" />
            <mxPoint x="564" y="111" as="targetPoint" />
          </mxGeometry>
        </mxCell>
        <mxCell id="HW4Ws5UdA1n7GmpckK8y-286" value="" style="shape=requiredInterface;html=1;verticalLabelPosition=bottom;sketch=0;direction=north;" parent="1" vertex="1">
          <mxGeometry x="500" y="103" width="20" height="10" as="geometry" />
        </mxCell>
        <mxCell id="HW4Ws5UdA1n7GmpckK8y-290" value="" style="endArrow=none;html=1;rounded=0;fontSize=12;startSize=8;endSize=8;entryX=0.372;entryY=0.003;entryDx=0;entryDy=0;edgeStyle=elbowEdgeStyle;exitX=0.889;exitY=1.049;exitDx=0;exitDy=0;exitPerimeter=0;entryPerimeter=0;" parent="1" source="HW4Ws5UdA1n7GmpckK8y-5" target="HW4Ws5UdA1n7GmpckK8y-289" edge="1">
          <mxGeometry relative="1" as="geometry">
            <mxPoint x="-101" y="-55" as="sourcePoint" />
            <mxPoint x="284" y="113" as="targetPoint" />
            <Array as="points">
              <mxPoint x="-103" y="36" />
            </Array>
          </mxGeometry>
        </mxCell>
        <mxCell id="HW4Ws5UdA1n7GmpckK8y-289" value="" style="shape=requiredInterface;html=1;verticalLabelPosition=bottom;sketch=0;direction=north;" parent="1" vertex="1">
          <mxGeometry x="47" y="107" width="20" height="10" as="geometry" />
        </mxCell>
        <mxCell id="HW4Ws5UdA1n7GmpckK8y-292" value="" style="endArrow=none;html=1;rounded=0;fontSize=12;startSize=8;endSize=8;edgeStyle=orthogonalEdgeStyle;entryX=0.305;entryY=1.005;entryDx=0;entryDy=0;entryPerimeter=0;" parent="1" target="HW4Ws5UdA1n7GmpckK8y-8" edge="1">
          <mxGeometry relative="1" as="geometry">
            <mxPoint x="-106" y="-10" as="sourcePoint" />
            <mxPoint x="-19" y="-269" as="targetPoint" />
            <Array as="points">
              <mxPoint x="-108" y="-10" />
              <mxPoint x="-108" y="-77" />
              <mxPoint x="-31" y="-77" />
              <mxPoint x="-31" y="-269" />
              <mxPoint x="-28" y="-269" />
            </Array>
          </mxGeometry>
        </mxCell>
        <mxCell id="HW4Ws5UdA1n7GmpckK8y-291" value="modify" style="shape=rhombus;perimeter=rhombusPerimeter;whiteSpace=wrap;html=1;align=center;fillColor=#ffe6cc;strokeColor=#d79b00;" parent="1" vertex="1">
          <mxGeometry x="-94.5" y="-214" width="120" height="60" as="geometry" />
        </mxCell>
        <mxCell id="HW4Ws5UdA1n7GmpckK8y-293" value="N" style="text;html=1;align=center;verticalAlign=middle;resizable=0;points=[];autosize=1;strokeColor=none;fillColor=none;fontSize=16;" parent="1" vertex="1">
          <mxGeometry x="-33" y="-254" width="30" height="31" as="geometry" />
        </mxCell>
        <mxCell id="HW4Ws5UdA1n7GmpckK8y-298" value="teaches" style="shape=rhombus;perimeter=rhombusPerimeter;whiteSpace=wrap;html=1;align=center;fillColor=#ffe6cc;strokeColor=#d79b00;" parent="1" vertex="1">
          <mxGeometry x="-188" y="-157" width="120" height="60" as="geometry" />
        </mxCell>
        <mxCell id="HW4Ws5UdA1n7GmpckK8y-300" value="" style="endArrow=none;html=1;rounded=0;fontSize=12;startSize=8;endSize=8;entryX=0;entryY=0.5;entryDx=0;entryDy=0;exitX=0.5;exitY=0;exitDx=0;exitDy=0;edgeStyle=orthogonalEdgeStyle;" parent="1" source="HW4Ws5UdA1n7GmpckK8y-298" target="HW4Ws5UdA1n7GmpckK8y-8" edge="1">
          <mxGeometry relative="1" as="geometry">
            <mxPoint x="37" y="-123" as="sourcePoint" />
            <mxPoint x="197" y="-123" as="targetPoint" />
          </mxGeometry>
        </mxCell>
        <mxCell id="HW4Ws5UdA1n7GmpckK8y-301" value="" style="endArrow=none;html=1;rounded=0;fontSize=12;startSize=8;endSize=8;curved=1;exitX=0.5;exitY=1;exitDx=0;exitDy=0;entryX=1;entryY=1.118;entryDx=0;entryDy=0;entryPerimeter=0;" parent="1" source="HW4Ws5UdA1n7GmpckK8y-298" target="HW4Ws5UdA1n7GmpckK8y-303" edge="1">
          <mxGeometry relative="1" as="geometry">
            <mxPoint x="37" y="-123" as="sourcePoint" />
            <mxPoint x="-172" y="-14" as="targetPoint" />
          </mxGeometry>
        </mxCell>
        <mxCell id="HW4Ws5UdA1n7GmpckK8y-302" value="1" style="text;html=1;align=center;verticalAlign=middle;resizable=0;points=[];autosize=1;strokeColor=none;fillColor=none;fontSize=16;" parent="1" vertex="1">
          <mxGeometry x="-114.5" y="-320.5" width="27" height="31" as="geometry" />
        </mxCell>
        <mxCell id="HW4Ws5UdA1n7GmpckK8y-303" value="N" style="text;html=1;align=center;verticalAlign=middle;resizable=0;points=[];autosize=1;strokeColor=none;fillColor=none;fontSize=16;" parent="1" vertex="1">
          <mxGeometry x="-158" y="-46" width="30" height="31" as="geometry" />
        </mxCell>
        <mxCell id="HW4Ws5UdA1n7GmpckK8y-304" value="" style="endArrow=none;html=1;rounded=0;fontSize=12;startSize=8;endSize=8;curved=1;exitX=1;exitY=0;exitDx=0;exitDy=0;entryX=0.5;entryY=1;entryDx=0;entryDy=0;" parent="1" source="HW4Ws5UdA1n7GmpckK8y-71" target="HW4Ws5UdA1n7GmpckK8y-4" edge="1">
          <mxGeometry relative="1" as="geometry">
            <mxPoint x="1240" y="69" as="sourcePoint" />
            <mxPoint x="1400" y="69" as="targetPoint" />
          </mxGeometry>
        </mxCell>
        <mxCell id="HW4Ws5UdA1n7GmpckK8y-305" value="has" style="shape=rhombus;perimeter=rhombusPerimeter;whiteSpace=wrap;html=1;align=center;fillColor=#ffe6cc;strokeColor=#d79b00;" parent="1" vertex="1">
          <mxGeometry x="332" y="-17.5" width="120" height="60" as="geometry" />
        </mxCell>
        <mxCell id="HW4Ws5UdA1n7GmpckK8y-306" value="" style="endArrow=none;html=1;rounded=0;fontSize=12;startSize=8;endSize=8;curved=1;exitX=0.088;exitY=1;exitDx=0;exitDy=0;entryX=0;entryY=0.5;entryDx=0;entryDy=0;exitPerimeter=0;" parent="1" source="HW4Ws5UdA1n7GmpckK8y-315" target="HW4Ws5UdA1n7GmpckK8y-305" edge="1">
          <mxGeometry relative="1" as="geometry">
            <mxPoint x="516" y="-120" as="sourcePoint" />
            <mxPoint x="676" y="-120" as="targetPoint" />
          </mxGeometry>
        </mxCell>
        <mxCell id="HW4Ws5UdA1n7GmpckK8y-307" value="1" style="text;html=1;align=center;verticalAlign=middle;resizable=0;points=[];autosize=1;strokeColor=none;fillColor=none;fontSize=16;" parent="1" vertex="1">
          <mxGeometry x="-86" y="8" width="27" height="31" as="geometry" />
        </mxCell>
        <mxCell id="HW4Ws5UdA1n7GmpckK8y-308" value="" style="endArrow=none;html=1;rounded=0;fontSize=12;startSize=8;endSize=8;curved=1;exitX=0.275;exitY=0.975;exitDx=0;exitDy=0;entryX=0;entryY=0.75;entryDx=0;entryDy=0;exitPerimeter=0;" parent="1" source="HW4Ws5UdA1n7GmpckK8y-325" target="HW4Ws5UdA1n7GmpckK8y-4" edge="1">
          <mxGeometry relative="1" as="geometry">
            <mxPoint x="516" y="-120" as="sourcePoint" />
            <mxPoint x="676" y="-120" as="targetPoint" />
          </mxGeometry>
        </mxCell>
        <mxCell id="HW4Ws5UdA1n7GmpckK8y-309" value="N" style="resizable=0;html=1;whiteSpace=wrap;align=right;verticalAlign=bottom;" parent="HW4Ws5UdA1n7GmpckK8y-308" connectable="0" vertex="1">
          <mxGeometry x="1" relative="1" as="geometry">
            <mxPoint x="-21" y="-3" as="offset" />
          </mxGeometry>
        </mxCell>
        <mxCell id="HW4Ws5UdA1n7GmpckK8y-316" value="" style="endArrow=none;html=1;rounded=0;fontSize=12;startSize=8;endSize=8;curved=1;exitX=1;exitY=0.5;exitDx=0;exitDy=0;entryX=0.064;entryY=0.067;entryDx=0;entryDy=0;entryPerimeter=0;" parent="1" source="HW4Ws5UdA1n7GmpckK8y-5" target="HW4Ws5UdA1n7GmpckK8y-315" edge="1">
          <mxGeometry relative="1" as="geometry">
            <mxPoint x="-86" y="10" as="sourcePoint" />
            <mxPoint x="333" y="13" as="targetPoint" />
          </mxGeometry>
        </mxCell>
        <mxCell id="HW4Ws5UdA1n7GmpckK8y-315" value="" style="shape=requiredInterface;html=1;verticalLabelPosition=bottom;sketch=0;direction=north;" parent="1" vertex="1">
          <mxGeometry x="49" y="3" width="20" height="10" as="geometry" />
        </mxCell>
        <mxCell id="HW4Ws5UdA1n7GmpckK8y-317" value="" style="endArrow=none;html=1;rounded=0;fontSize=12;startSize=8;endSize=8;curved=1;exitX=1;exitY=0.5;exitDx=0;exitDy=0;entryX=0.333;entryY=0.111;entryDx=0;entryDy=0;entryPerimeter=0;" parent="1" source="HW4Ws5UdA1n7GmpckK8y-305" target="HW4Ws5UdA1n7GmpckK8y-314" edge="1">
          <mxGeometry relative="1" as="geometry">
            <mxPoint x="453" y="13" as="sourcePoint" />
            <mxPoint x="1298" y="13" as="targetPoint" />
          </mxGeometry>
        </mxCell>
        <mxCell id="HW4Ws5UdA1n7GmpckK8y-314" value="" style="shape=requiredInterface;html=1;verticalLabelPosition=bottom;sketch=0;direction=north;" parent="1" vertex="1">
          <mxGeometry x="504" y="7.5" width="20" height="10" as="geometry" />
        </mxCell>
        <mxCell id="HW4Ws5UdA1n7GmpckK8y-319" value="" style="endArrow=none;html=1;rounded=0;fontSize=12;startSize=8;endSize=8;curved=1;exitX=0.275;exitY=0.975;exitDx=0;exitDy=0;entryX=0.253;entryY=0.006;entryDx=0;entryDy=0;exitPerimeter=0;entryPerimeter=0;" parent="1" source="HW4Ws5UdA1n7GmpckK8y-492" target="HW4Ws5UdA1n7GmpckK8y-313" edge="1">
          <mxGeometry relative="1" as="geometry">
            <mxPoint x="524" y="15" as="sourcePoint" />
            <mxPoint x="1298" y="13" as="targetPoint" />
          </mxGeometry>
        </mxCell>
        <mxCell id="HW4Ws5UdA1n7GmpckK8y-313" value="" style="shape=requiredInterface;html=1;verticalLabelPosition=bottom;sketch=0;direction=north;" parent="1" vertex="1">
          <mxGeometry x="754" y="7.5" width="20" height="10" as="geometry" />
        </mxCell>
        <mxCell id="HW4Ws5UdA1n7GmpckK8y-323" value="" style="endArrow=none;html=1;rounded=0;fontSize=12;startSize=8;endSize=8;curved=1;exitX=0.275;exitY=0.975;exitDx=0;exitDy=0;entryX=0.253;entryY=-0.028;entryDx=0;entryDy=0;exitPerimeter=0;entryPerimeter=0;" parent="1" source="HW4Ws5UdA1n7GmpckK8y-313" target="HW4Ws5UdA1n7GmpckK8y-312" edge="1">
          <mxGeometry relative="1" as="geometry">
            <mxPoint x="774" y="15" as="sourcePoint" />
            <mxPoint x="1298" y="13" as="targetPoint" />
          </mxGeometry>
        </mxCell>
        <mxCell id="HW4Ws5UdA1n7GmpckK8y-312" value="" style="shape=requiredInterface;html=1;verticalLabelPosition=bottom;sketch=0;direction=north;" parent="1" vertex="1">
          <mxGeometry x="955" y="8" width="20" height="10" as="geometry" />
        </mxCell>
        <mxCell id="HW4Ws5UdA1n7GmpckK8y-326" value="" style="endArrow=none;html=1;rounded=0;fontSize=12;startSize=8;endSize=8;curved=1;exitX=0.275;exitY=0.975;exitDx=0;exitDy=0;exitPerimeter=0;" parent="1" source="HW4Ws5UdA1n7GmpckK8y-312" edge="1">
          <mxGeometry relative="1" as="geometry">
            <mxPoint x="975" y="15" as="sourcePoint" />
            <mxPoint x="1057" y="17" as="targetPoint" />
          </mxGeometry>
        </mxCell>
        <mxCell id="HW4Ws5UdA1n7GmpckK8y-325" value="" style="shape=requiredInterface;html=1;verticalLabelPosition=bottom;sketch=0;direction=north;" parent="1" vertex="1">
          <mxGeometry x="1058" y="7.5" width="20" height="10" as="geometry" />
        </mxCell>
        <mxCell id="HW4Ws5UdA1n7GmpckK8y-329" value="enrols" style="shape=rhombus;perimeter=rhombusPerimeter;whiteSpace=wrap;html=1;align=center;fillColor=#ffe6cc;strokeColor=#d79b00;" parent="1" vertex="1">
          <mxGeometry x="215" y="-163" width="120" height="60" as="geometry" />
        </mxCell>
        <mxCell id="HW4Ws5UdA1n7GmpckK8y-330" value="" style="endArrow=none;html=1;rounded=0;fontSize=12;startSize=8;endSize=8;exitX=0.223;exitY=0.964;exitDx=0;exitDy=0;entryX=0.5;entryY=1;entryDx=0;entryDy=0;edgeStyle=orthogonalEdgeStyle;exitPerimeter=0;" parent="1" source="HW4Ws5UdA1n7GmpckK8y-334" target="HW4Ws5UdA1n7GmpckK8y-329" edge="1">
          <mxGeometry relative="1" as="geometry">
            <mxPoint x="1" y="-76" as="sourcePoint" />
            <mxPoint x="161" y="-76" as="targetPoint" />
            <Array as="points">
              <mxPoint x="71" y="-61" />
              <mxPoint x="275" y="-61" />
            </Array>
          </mxGeometry>
        </mxCell>
        <mxCell id="HW4Ws5UdA1n7GmpckK8y-331" value="" style="endArrow=none;html=1;rounded=0;fontSize=12;startSize=8;endSize=8;entryX=0.5;entryY=0;entryDx=0;entryDy=0;exitX=0;exitY=1;exitDx=0;exitDy=0;edgeStyle=orthogonalEdgeStyle;" parent="1" source="HW4Ws5UdA1n7GmpckK8y-376" target="HW4Ws5UdA1n7GmpckK8y-329" edge="1">
          <mxGeometry relative="1" as="geometry">
            <mxPoint x="1" y="-76" as="sourcePoint" />
            <mxPoint x="161" y="-76" as="targetPoint" />
          </mxGeometry>
        </mxCell>
        <mxCell id="HW4Ws5UdA1n7GmpckK8y-332" value="N" style="text;html=1;align=center;verticalAlign=middle;resizable=0;points=[];autosize=1;strokeColor=none;fillColor=none;fontSize=16;" parent="1" vertex="1">
          <mxGeometry x="-94.5" y="-41" width="30" height="31" as="geometry" />
        </mxCell>
        <mxCell id="HW4Ws5UdA1n7GmpckK8y-333" value="M" style="text;html=1;align=center;verticalAlign=middle;resizable=0;points=[];autosize=1;strokeColor=none;fillColor=none;fontSize=16;" parent="1" vertex="1">
          <mxGeometry x="424.5" y="-288.5" width="31" height="31" as="geometry" />
        </mxCell>
        <mxCell id="HW4Ws5UdA1n7GmpckK8y-335" value="" style="endArrow=none;html=1;rounded=0;fontSize=12;startSize=8;endSize=8;exitX=1;exitY=0;exitDx=0;exitDy=0;entryX=0.1;entryY=-0.072;entryDx=0;entryDy=0;entryPerimeter=0;edgeStyle=orthogonalEdgeStyle;" parent="1" source="HW4Ws5UdA1n7GmpckK8y-5" target="HW4Ws5UdA1n7GmpckK8y-334" edge="1">
          <mxGeometry relative="1" as="geometry">
            <mxPoint x="-95.50000000000023" y="-10" as="sourcePoint" />
            <mxPoint x="42.5" y="-33.440000000000055" as="targetPoint" />
            <Array as="points">
              <mxPoint x="-93" y="-10" />
              <mxPoint x="-93" y="-64" />
              <mxPoint x="50" y="-64" />
            </Array>
          </mxGeometry>
        </mxCell>
        <mxCell id="HW4Ws5UdA1n7GmpckK8y-334" value="" style="shape=requiredInterface;html=1;verticalLabelPosition=bottom;sketch=0;direction=north;" parent="1" vertex="1">
          <mxGeometry x="51" y="-71" width="20" height="10" as="geometry" />
        </mxCell>
        <mxCell id="HW4Ws5UdA1n7GmpckK8y-294" value="M" style="text;html=1;align=center;verticalAlign=middle;resizable=0;points=[];autosize=1;strokeColor=none;fillColor=none;fontSize=16;" parent="1" vertex="1">
          <mxGeometry x="-134.5" y="-48" width="31" height="31" as="geometry" />
        </mxCell>
        <mxCell id="HW4Ws5UdA1n7GmpckK8y-337" value="uploads" style="shape=rhombus;perimeter=rhombusPerimeter;whiteSpace=wrap;html=1;align=center;fillColor=#ffe6cc;strokeColor=#d79b00;" parent="1" vertex="1">
          <mxGeometry x="797" y="35.5" width="120" height="60" as="geometry" />
        </mxCell>
        <mxCell id="HW4Ws5UdA1n7GmpckK8y-338" value="" style="endArrow=none;html=1;rounded=0;fontSize=12;startSize=8;endSize=8;exitX=0.164;exitY=1.037;exitDx=0;exitDy=0;entryX=0;entryY=0.5;entryDx=0;entryDy=0;edgeStyle=orthogonalEdgeStyle;exitPerimeter=0;" parent="1" source="HW4Ws5UdA1n7GmpckK8y-482" target="HW4Ws5UdA1n7GmpckK8y-337" edge="1">
          <mxGeometry relative="1" as="geometry">
            <mxPoint x="710" y="134" as="sourcePoint" />
            <mxPoint x="870" y="134" as="targetPoint" />
            <Array as="points">
              <mxPoint x="161" y="66" />
            </Array>
          </mxGeometry>
        </mxCell>
        <mxCell id="HW4Ws5UdA1n7GmpckK8y-339" style="edgeStyle=none;curved=1;rounded=0;orthogonalLoop=1;jettySize=auto;html=1;entryX=0;entryY=0.5;entryDx=0;entryDy=0;fontSize=12;startSize=8;endSize=8;" parent="1" source="HW4Ws5UdA1n7GmpckK8y-337" target="HW4Ws5UdA1n7GmpckK8y-337" edge="1">
          <mxGeometry relative="1" as="geometry" />
        </mxCell>
        <mxCell id="HW4Ws5UdA1n7GmpckK8y-340" value="" style="endArrow=none;html=1;rounded=0;fontSize=12;startSize=8;endSize=8;exitX=0.073;exitY=1.055;exitDx=0;exitDy=0;entryX=0.153;entryY=1.049;entryDx=0;entryDy=0;edgeStyle=orthogonalEdgeStyle;entryPerimeter=0;exitPerimeter=0;" parent="1" source="HW4Ws5UdA1n7GmpckK8y-383" target="HW4Ws5UdA1n7GmpckK8y-4" edge="1">
          <mxGeometry relative="1" as="geometry">
            <mxPoint x="710" y="134" as="sourcePoint" />
            <mxPoint x="870" y="134" as="targetPoint" />
            <Array as="points">
              <mxPoint x="1421" y="66" />
            </Array>
          </mxGeometry>
        </mxCell>
        <mxCell id="HW4Ws5UdA1n7GmpckK8y-342" value="M" style="text;html=1;align=center;verticalAlign=middle;resizable=0;points=[];autosize=1;strokeColor=none;fillColor=none;fontSize=16;" parent="1" vertex="1">
          <mxGeometry x="1378" y="30" width="31" height="31" as="geometry" />
        </mxCell>
        <mxCell id="HW4Ws5UdA1n7GmpckK8y-350" value="" style="endArrow=none;html=1;rounded=0;fontSize=12;startSize=8;endSize=8;exitX=1;exitY=0.75;exitDx=0;exitDy=0;entryX=0.148;entryY=-0.03;entryDx=0;entryDy=0;edgeStyle=orthogonalEdgeStyle;entryPerimeter=0;" parent="1" edge="1">
          <mxGeometry relative="1" as="geometry">
            <mxPoint x="78" y="-267.43" as="sourcePoint" />
            <mxPoint x="158.48000000000002" y="-68.52999999999992" as="targetPoint" />
            <Array as="points">
              <mxPoint x="78" y="-289" />
              <mxPoint x="159" y="-289" />
              <mxPoint x="159" y="-68" />
            </Array>
          </mxGeometry>
        </mxCell>
        <mxCell id="HW4Ws5UdA1n7GmpckK8y-351" value="N" style="edgeLabel;html=1;align=center;verticalAlign=middle;resizable=0;points=[];fontSize=12;" parent="HW4Ws5UdA1n7GmpckK8y-350" vertex="1" connectable="0">
          <mxGeometry x="-0.9596" y="-8" relative="1" as="geometry">
            <mxPoint x="3" y="-20" as="offset" />
          </mxGeometry>
        </mxCell>
        <mxCell id="HW4Ws5UdA1n7GmpckK8y-405" value="1" style="edgeLabel;html=1;align=center;verticalAlign=middle;resizable=0;points=[];fontSize=12;" parent="HW4Ws5UdA1n7GmpckK8y-350" vertex="1" connectable="0">
          <mxGeometry x="-0.8543" y="-3" relative="1" as="geometry">
            <mxPoint x="9" y="4" as="offset" />
          </mxGeometry>
        </mxCell>
        <mxCell id="HW4Ws5UdA1n7GmpckK8y-347" value="" style="shape=requiredInterface;html=1;verticalLabelPosition=bottom;sketch=0;" parent="1" vertex="1">
          <mxGeometry x="159" y="-68.5" width="10" height="20" as="geometry" />
        </mxCell>
        <mxCell id="HW4Ws5UdA1n7GmpckK8y-352" value="" style="endArrow=none;html=1;rounded=0;fontSize=12;startSize=8;endSize=8;curved=1;exitX=0.275;exitY=0.975;exitDx=0;exitDy=0;entryX=0.253;entryY=0.006;entryDx=0;entryDy=0;exitPerimeter=0;entryPerimeter=0;" parent="1" source="HW4Ws5UdA1n7GmpckK8y-314" target="HW4Ws5UdA1n7GmpckK8y-344" edge="1">
          <mxGeometry relative="1" as="geometry">
            <mxPoint x="524" y="15" as="sourcePoint" />
            <mxPoint x="754" y="15" as="targetPoint" />
          </mxGeometry>
        </mxCell>
        <mxCell id="HW4Ws5UdA1n7GmpckK8y-344" value="" style="shape=requiredInterface;html=1;verticalLabelPosition=bottom;sketch=0;direction=north;" parent="1" vertex="1">
          <mxGeometry x="562" y="5.5" width="20" height="10" as="geometry" />
        </mxCell>
        <mxCell id="HW4Ws5UdA1n7GmpckK8y-353" value="sees" style="shape=rhombus;perimeter=rhombusPerimeter;whiteSpace=wrap;html=1;align=center;fillColor=#ffe6cc;strokeColor=#d79b00;" parent="1" vertex="1">
          <mxGeometry x="1264" y="-214" width="120" height="60" as="geometry" />
        </mxCell>
        <mxCell id="HW4Ws5UdA1n7GmpckK8y-356" value="" style="endArrow=none;html=1;rounded=0;fontSize=12;startSize=8;endSize=8;exitX=1;exitY=0.5;exitDx=0;exitDy=0;entryX=0;entryY=0;entryDx=0;entryDy=0;edgeStyle=orthogonalEdgeStyle;" parent="1" source="HW4Ws5UdA1n7GmpckK8y-353" target="HW4Ws5UdA1n7GmpckK8y-4" edge="1">
          <mxGeometry relative="1" as="geometry">
            <mxPoint x="1225" y="-187" as="sourcePoint" />
            <mxPoint x="1406" y="-4" as="targetPoint" />
          </mxGeometry>
        </mxCell>
        <mxCell id="HW4Ws5UdA1n7GmpckK8y-58" value="quiz1" style="ellipse;whiteSpace=wrap;html=1;align=center;fillColor=#dae8fc;strokeColor=#6c8ebf;" parent="1" vertex="1">
          <mxGeometry x="1456" y="-154" width="92" height="35" as="geometry" />
        </mxCell>
        <mxCell id="HW4Ws5UdA1n7GmpckK8y-358" value="N" style="text;html=1;align=center;verticalAlign=middle;resizable=0;points=[];autosize=1;strokeColor=none;fillColor=none;fontSize=16;" parent="1" vertex="1">
          <mxGeometry x="67" y="-257.5" width="30" height="31" as="geometry" />
        </mxCell>
        <mxCell id="HW4Ws5UdA1n7GmpckK8y-359" value="M" style="text;html=1;align=center;verticalAlign=middle;resizable=0;points=[];autosize=1;strokeColor=none;fillColor=none;fontSize=16;" parent="1" vertex="1">
          <mxGeometry x="1371" y="-35" width="31" height="31" as="geometry" />
        </mxCell>
        <mxCell id="HW4Ws5UdA1n7GmpckK8y-361" value="" style="endArrow=none;html=1;rounded=0;fontSize=12;startSize=8;endSize=8;exitX=0.913;exitY=0.908;exitDx=0;exitDy=0;exitPerimeter=0;entryX=0.144;entryY=-0.04;entryDx=0;entryDy=0;edgeStyle=orthogonalEdgeStyle;entryPerimeter=0;" parent="1" source="HW4Ws5UdA1n7GmpckK8y-8" target="HW4Ws5UdA1n7GmpckK8y-360" edge="1">
          <mxGeometry relative="1" as="geometry">
            <mxPoint x="67" y="-273" as="sourcePoint" />
            <mxPoint x="1105" y="-187" as="targetPoint" />
            <Array as="points" />
          </mxGeometry>
        </mxCell>
        <mxCell id="HW4Ws5UdA1n7GmpckK8y-360" value="" style="shape=requiredInterface;html=1;verticalLabelPosition=bottom;sketch=0;direction=north;" parent="1" vertex="1">
          <mxGeometry x="149" y="-192" width="20" height="10" as="geometry" />
        </mxCell>
        <mxCell id="HW4Ws5UdA1n7GmpckK8y-365" value="" style="endArrow=none;html=1;rounded=0;fontSize=12;startSize=8;endSize=8;edgeStyle=elbowEdgeStyle;elbow=vertical;exitX=0.145;exitY=-0.057;exitDx=0;exitDy=0;exitPerimeter=0;entryX=0.144;entryY=0.977;entryDx=0;entryDy=0;entryPerimeter=0;" parent="1" source="HW4Ws5UdA1n7GmpckK8y-381" target="HW4Ws5UdA1n7GmpckK8y-364" edge="1">
          <mxGeometry relative="1" as="geometry">
            <mxPoint x="521" y="268" as="sourcePoint" />
            <mxPoint x="557" y="-293" as="targetPoint" />
            <Array as="points" />
          </mxGeometry>
        </mxCell>
        <mxCell id="HW4Ws5UdA1n7GmpckK8y-364" value="" style="shape=requiredInterface;html=1;verticalLabelPosition=bottom;sketch=0;direction=east;" parent="1" vertex="1">
          <mxGeometry x="567.5" y="-190" width="10" height="20" as="geometry" />
        </mxCell>
        <mxCell id="HW4Ws5UdA1n7GmpckK8y-368" value="" style="endArrow=none;html=1;rounded=0;fontSize=12;startSize=8;endSize=8;exitX=0;exitY=0.908;exitDx=0;exitDy=0;exitPerimeter=0;entryX=0.129;entryY=0.11;entryDx=0;entryDy=0;edgeStyle=orthogonalEdgeStyle;entryPerimeter=0;" parent="1" source="HW4Ws5UdA1n7GmpckK8y-360" target="HW4Ws5UdA1n7GmpckK8y-362" edge="1">
          <mxGeometry relative="1" as="geometry">
            <mxPoint x="167" y="-182" as="sourcePoint" />
            <mxPoint x="1105" y="-187" as="targetPoint" />
            <Array as="points">
              <mxPoint x="167" y="-185" />
              <mxPoint x="960" y="-185" />
            </Array>
          </mxGeometry>
        </mxCell>
        <mxCell id="HW4Ws5UdA1n7GmpckK8y-362" value="" style="shape=requiredInterface;html=1;verticalLabelPosition=bottom;sketch=0;direction=north;" parent="1" vertex="1">
          <mxGeometry x="958" y="-192.5" width="20" height="10" as="geometry" />
        </mxCell>
        <mxCell id="HW4Ws5UdA1n7GmpckK8y-370" value="" style="endArrow=none;html=1;rounded=0;fontSize=12;startSize=8;endSize=8;exitX=0;exitY=0.908;exitDx=0;exitDy=0;exitPerimeter=0;entryX=0.131;entryY=0.014;entryDx=0;entryDy=0;entryPerimeter=0;" parent="1" source="HW4Ws5UdA1n7GmpckK8y-362" target="HW4Ws5UdA1n7GmpckK8y-369" edge="1">
          <mxGeometry relative="1" as="geometry">
            <mxPoint x="976" y="-182" as="sourcePoint" />
            <mxPoint x="1105" y="-187" as="targetPoint" />
          </mxGeometry>
        </mxCell>
        <mxCell id="HW4Ws5UdA1n7GmpckK8y-369" value="" style="shape=requiredInterface;html=1;verticalLabelPosition=bottom;sketch=0;direction=north;" parent="1" vertex="1">
          <mxGeometry x="1058" y="-192.5" width="20" height="10" as="geometry" />
        </mxCell>
        <mxCell id="HW4Ws5UdA1n7GmpckK8y-374" value="" style="endArrow=none;html=1;rounded=0;fontSize=12;startSize=8;endSize=8;curved=1;entryX=0.482;entryY=0.812;entryDx=0;entryDy=0;entryPerimeter=0;" parent="1" source="HW4Ws5UdA1n7GmpckK8y-385" target="HW4Ws5UdA1n7GmpckK8y-371" edge="1">
          <mxGeometry relative="1" as="geometry">
            <mxPoint x="511" y="321" as="sourcePoint" />
            <mxPoint x="511.8800000000001" y="-271.91499999999996" as="targetPoint" />
          </mxGeometry>
        </mxCell>
        <mxCell id="HW4Ws5UdA1n7GmpckK8y-371" value="" style="shape=requiredInterface;html=1;verticalLabelPosition=bottom;sketch=0;direction=east;rotation=10;" parent="1" vertex="1">
          <mxGeometry x="504.81" y="-191.88" width="9.5" height="18" as="geometry" />
        </mxCell>
        <mxCell id="HW4Ws5UdA1n7GmpckK8y-378" value="" style="endArrow=none;html=1;rounded=0;fontSize=12;startSize=8;endSize=8;entryX=0.179;entryY=-0.051;entryDx=0;entryDy=0;exitX=0;exitY=1;exitDx=0;exitDy=0;edgeStyle=orthogonalEdgeStyle;entryPerimeter=0;" parent="1" source="HW4Ws5UdA1n7GmpckK8y-406" target="HW4Ws5UdA1n7GmpckK8y-376" edge="1">
          <mxGeometry relative="1" as="geometry">
            <mxPoint x="457" y="-273" as="sourcePoint" />
            <mxPoint x="275" y="-163" as="targetPoint" />
          </mxGeometry>
        </mxCell>
        <mxCell id="HW4Ws5UdA1n7GmpckK8y-376" value="" style="shape=requiredInterface;html=1;verticalLabelPosition=bottom;sketch=0;direction=east;" parent="1" vertex="1">
          <mxGeometry x="274" y="-194" width="10" height="20" as="geometry" />
        </mxCell>
        <mxCell id="HW4Ws5UdA1n7GmpckK8y-386" value="" style="endArrow=none;html=1;rounded=0;fontSize=12;startSize=8;endSize=8;curved=1;entryX=0.482;entryY=0.812;entryDx=0;entryDy=0;entryPerimeter=0;" parent="1" target="HW4Ws5UdA1n7GmpckK8y-385" edge="1">
          <mxGeometry relative="1" as="geometry">
            <mxPoint x="511" y="321" as="sourcePoint" />
            <mxPoint x="508" y="-178" as="targetPoint" />
          </mxGeometry>
        </mxCell>
        <mxCell id="HW4Ws5UdA1n7GmpckK8y-385" value="" style="shape=requiredInterface;html=1;verticalLabelPosition=bottom;sketch=0;direction=east;" parent="1" vertex="1">
          <mxGeometry x="505" y="56" width="10" height="20" as="geometry" />
        </mxCell>
        <mxCell id="HW4Ws5UdA1n7GmpckK8y-388" value="" style="endArrow=none;html=1;rounded=0;fontSize=12;startSize=8;endSize=8;exitX=1;exitY=0.5;exitDx=0;exitDy=0;edgeStyle=orthogonalEdgeStyle;entryX=0.217;entryY=-0.046;entryDx=0;entryDy=0;entryPerimeter=0;" parent="1" source="HW4Ws5UdA1n7GmpckK8y-171" target="HW4Ws5UdA1n7GmpckK8y-384" edge="1">
          <mxGeometry relative="1" as="geometry">
            <mxPoint x="260" y="420" as="sourcePoint" />
            <mxPoint x="980" y="-378" as="targetPoint" />
            <Array as="points">
              <mxPoint x="260" y="400" />
              <mxPoint x="260" y="402" />
              <mxPoint x="1066" y="402" />
            </Array>
          </mxGeometry>
        </mxCell>
        <mxCell id="HW4Ws5UdA1n7GmpckK8y-384" value="" style="shape=requiredInterface;html=1;verticalLabelPosition=bottom;sketch=0;direction=west;" parent="1" vertex="1">
          <mxGeometry x="1058" y="57.5" width="10" height="20" as="geometry" />
        </mxCell>
        <mxCell id="HW4Ws5UdA1n7GmpckK8y-392" value="" style="endArrow=none;html=1;rounded=0;fontSize=12;startSize=8;endSize=8;exitX=1;exitY=0.5;exitDx=0;exitDy=0;entryX=0.01;entryY=0.043;entryDx=0;entryDy=0;entryPerimeter=0;" parent="1" source="HW4Ws5UdA1n7GmpckK8y-337" target="HW4Ws5UdA1n7GmpckK8y-383" edge="1">
          <mxGeometry relative="1" as="geometry">
            <mxPoint x="917" y="66" as="sourcePoint" />
            <mxPoint x="1421" y="38" as="targetPoint" />
          </mxGeometry>
        </mxCell>
        <mxCell id="HW4Ws5UdA1n7GmpckK8y-383" value="" style="shape=requiredInterface;html=1;verticalLabelPosition=bottom;sketch=0;direction=north;" parent="1" vertex="1">
          <mxGeometry x="960" y="56.5" width="20" height="10" as="geometry" />
        </mxCell>
        <mxCell id="HW4Ws5UdA1n7GmpckK8y-394" value="" style="endArrow=none;html=1;rounded=0;fontSize=12;startSize=8;endSize=8;edgeStyle=orthogonalEdgeStyle;exitX=0.017;exitY=1.077;exitDx=0;exitDy=0;exitPerimeter=0;entryX=0.211;entryY=1.001;entryDx=0;entryDy=0;entryPerimeter=0;" parent="1" source="HW4Ws5UdA1n7GmpckK8y-488" target="HW4Ws5UdA1n7GmpckK8y-382" edge="1">
          <mxGeometry relative="1" as="geometry">
            <mxPoint x="587" y="113" as="sourcePoint" />
            <mxPoint x="755" y="113" as="targetPoint" />
            <Array as="points">
              <mxPoint x="759" y="113" />
            </Array>
          </mxGeometry>
        </mxCell>
        <mxCell id="HW4Ws5UdA1n7GmpckK8y-395" style="edgeStyle=none;curved=1;rounded=0;orthogonalLoop=1;jettySize=auto;html=1;exitX=1;exitY=0.5;exitDx=0;exitDy=0;exitPerimeter=0;fontSize=12;startSize=8;endSize=8;" parent="1" source="HW4Ws5UdA1n7GmpckK8y-382" edge="1">
          <mxGeometry relative="1" as="geometry">
            <mxPoint x="764.1739130434785" y="66.08695652173924" as="targetPoint" />
          </mxGeometry>
        </mxCell>
        <mxCell id="HW4Ws5UdA1n7GmpckK8y-382" value="" style="shape=requiredInterface;html=1;verticalLabelPosition=bottom;sketch=0;" parent="1" vertex="1">
          <mxGeometry x="757" y="56.5" width="10" height="20" as="geometry" />
        </mxCell>
        <mxCell id="HW4Ws5UdA1n7GmpckK8y-400" value="" style="endArrow=none;html=1;rounded=0;fontSize=12;startSize=8;endSize=8;edgeStyle=elbowEdgeStyle;elbow=vertical;exitX=0.385;exitY=1.038;exitDx=0;exitDy=0;exitPerimeter=0;entryX=0.144;entryY=0.977;entryDx=0;entryDy=0;entryPerimeter=0;" parent="1" source="HW4Ws5UdA1n7GmpckK8y-230" target="HW4Ws5UdA1n7GmpckK8y-381" edge="1">
          <mxGeometry relative="1" as="geometry">
            <mxPoint x="521" y="268" as="sourcePoint" />
            <mxPoint x="569" y="-170" as="targetPoint" />
            <Array as="points">
              <mxPoint x="569" y="268" />
            </Array>
          </mxGeometry>
        </mxCell>
        <mxCell id="HW4Ws5UdA1n7GmpckK8y-381" value="" style="shape=requiredInterface;html=1;verticalLabelPosition=bottom;sketch=0;" parent="1" vertex="1">
          <mxGeometry x="567" y="57.5" width="10" height="20" as="geometry" />
        </mxCell>
        <mxCell id="HW4Ws5UdA1n7GmpckK8y-235" value="sees" style="shape=rhombus;perimeter=rhombusPerimeter;whiteSpace=wrap;html=1;align=center;fillColor=#ffe6cc;strokeColor=#d79b00;" parent="1" vertex="1">
          <mxGeometry x="519" y="-147" width="107" height="67" as="geometry" />
        </mxCell>
        <mxCell id="HW4Ws5UdA1n7GmpckK8y-401" value="" style="endArrow=none;html=1;rounded=0;fontSize=12;startSize=8;endSize=8;exitX=0.132;exitY=1.121;exitDx=0;exitDy=0;entryX=0;entryY=0.5;entryDx=0;entryDy=0;edgeStyle=orthogonalEdgeStyle;exitPerimeter=0;" parent="1" source="HW4Ws5UdA1n7GmpckK8y-410" target="HW4Ws5UdA1n7GmpckK8y-136" edge="1">
          <mxGeometry relative="1" as="geometry">
            <mxPoint x="458" y="-28" as="sourcePoint" />
            <mxPoint x="618" y="-28" as="targetPoint" />
            <Array as="points">
              <mxPoint x="176" y="-268" />
              <mxPoint x="364" y="-268" />
              <mxPoint x="364" y="-244" />
            </Array>
          </mxGeometry>
        </mxCell>
        <mxCell id="HW4Ws5UdA1n7GmpckK8y-8" value="LECTURER" style="whiteSpace=wrap;html=1;align=center;fillColor=#d5e8d4;strokeColor=#82b366;" parent="1" vertex="1">
          <mxGeometry x="-75" y="-310" width="155" height="56" as="geometry" />
        </mxCell>
        <mxCell id="HW4Ws5UdA1n7GmpckK8y-403" value="" style="endArrow=none;html=1;rounded=0;fontSize=12;startSize=8;endSize=8;curved=1;exitX=0.3;exitY=1.123;exitDx=0;exitDy=0;exitPerimeter=0;entryX=0.42;entryY=0.095;entryDx=0;entryDy=0;entryPerimeter=0;" parent="1" source="HW4Ws5UdA1n7GmpckK8y-443" target="HW4Ws5UdA1n7GmpckK8y-3" edge="1">
          <mxGeometry relative="1" as="geometry">
            <mxPoint x="435" y="-180" as="sourcePoint" />
            <mxPoint x="769" y="-90" as="targetPoint" />
          </mxGeometry>
        </mxCell>
        <mxCell id="HW4Ws5UdA1n7GmpckK8y-404" value="N" style="text;html=1;align=center;verticalAlign=middle;resizable=0;points=[];autosize=1;strokeColor=none;fillColor=none;fontSize=16;" parent="1" vertex="1">
          <mxGeometry x="767" y="-119" width="30" height="31" as="geometry" />
        </mxCell>
        <mxCell id="HW4Ws5UdA1n7GmpckK8y-414" value="" style="endArrow=none;html=1;rounded=0;fontSize=12;startSize=8;endSize=8;exitX=1;exitY=0.75;exitDx=0;exitDy=0;entryX=0.184;entryY=-0.047;entryDx=0;entryDy=0;entryPerimeter=0;" parent="1" source="HW4Ws5UdA1n7GmpckK8y-8" target="HW4Ws5UdA1n7GmpckK8y-410" edge="1">
          <mxGeometry relative="1" as="geometry">
            <mxPoint x="80" y="-268" as="sourcePoint" />
            <mxPoint x="159" y="-273" as="targetPoint" />
          </mxGeometry>
        </mxCell>
        <mxCell id="HW4Ws5UdA1n7GmpckK8y-410" value="" style="shape=requiredInterface;html=1;verticalLabelPosition=bottom;sketch=0;direction=north;" parent="1" vertex="1">
          <mxGeometry x="154" y="-278" width="20" height="10" as="geometry" />
        </mxCell>
        <mxCell id="HW4Ws5UdA1n7GmpckK8y-418" value="" style="endArrow=none;html=1;rounded=0;fontSize=12;startSize=8;endSize=8;elbow=vertical;entryX=0.097;entryY=0.955;entryDx=0;entryDy=0;entryPerimeter=0;" parent="1" target="HW4Ws5UdA1n7GmpckK8y-409" edge="1">
          <mxGeometry relative="1" as="geometry">
            <mxPoint x="568" y="-191" as="sourcePoint" />
            <mxPoint x="557" y="-295" as="targetPoint" />
          </mxGeometry>
        </mxCell>
        <mxCell id="HW4Ws5UdA1n7GmpckK8y-409" value="" style="shape=requiredInterface;html=1;verticalLabelPosition=bottom;sketch=0;direction=east;" parent="1" vertex="1">
          <mxGeometry x="567.5" y="-254" width="10" height="20" as="geometry" />
        </mxCell>
        <mxCell id="HW4Ws5UdA1n7GmpckK8y-420" value="" style="endArrow=none;html=1;rounded=0;fontSize=12;startSize=8;endSize=8;curved=1;entryX=0.279;entryY=0.944;entryDx=0;entryDy=0;entryPerimeter=0;" parent="1" source="HW4Ws5UdA1n7GmpckK8y-371" target="HW4Ws5UdA1n7GmpckK8y-408" edge="1">
          <mxGeometry relative="1" as="geometry">
            <mxPoint x="509" y="-194" as="sourcePoint" />
            <mxPoint x="507" y="-278" as="targetPoint" />
          </mxGeometry>
        </mxCell>
        <mxCell id="HW4Ws5UdA1n7GmpckK8y-408" value="" style="shape=requiredInterface;html=1;verticalLabelPosition=bottom;sketch=0;" parent="1" vertex="1">
          <mxGeometry x="505" y="-248.5" width="10" height="20" as="geometry" />
        </mxCell>
        <mxCell id="HW4Ws5UdA1n7GmpckK8y-421" value="" style="endArrow=none;html=1;rounded=0;fontSize=12;startSize=8;endSize=8;entryX=0.179;entryY=-0.051;entryDx=0;entryDy=0;exitX=0;exitY=1;exitDx=0;exitDy=0;edgeStyle=orthogonalEdgeStyle;entryPerimeter=0;" parent="1" source="HW4Ws5UdA1n7GmpckK8y-7" target="HW4Ws5UdA1n7GmpckK8y-406" edge="1">
          <mxGeometry relative="1" as="geometry">
            <mxPoint x="457" y="-273" as="sourcePoint" />
            <mxPoint x="276" y="-195" as="targetPoint" />
          </mxGeometry>
        </mxCell>
        <mxCell id="HW4Ws5UdA1n7GmpckK8y-406" value="" style="shape=requiredInterface;html=1;verticalLabelPosition=bottom;sketch=0;direction=east;" parent="1" vertex="1">
          <mxGeometry x="448" y="-259" width="10" height="20" as="geometry" />
        </mxCell>
        <mxCell id="HW4Ws5UdA1n7GmpckK8y-422" value="has" style="shape=rhombus;perimeter=rhombusPerimeter;whiteSpace=wrap;html=1;align=center;fillColor=#ffe6cc;strokeColor=#d79b00;" parent="1" vertex="1">
          <mxGeometry x="1378" y="-342.5" width="120" height="60" as="geometry" />
        </mxCell>
        <mxCell id="HW4Ws5UdA1n7GmpckK8y-423" value="" style="endArrow=none;html=1;rounded=0;fontSize=12;startSize=8;endSize=8;curved=1;entryX=0;entryY=0.5;entryDx=0;entryDy=0;" parent="1" source="HW4Ws5UdA1n7GmpckK8y-511" target="HW4Ws5UdA1n7GmpckK8y-422" edge="1">
          <mxGeometry relative="1" as="geometry">
            <mxPoint x="557" y="-313" as="sourcePoint" />
            <mxPoint x="1163" y="50" as="targetPoint" />
          </mxGeometry>
        </mxCell>
        <mxCell id="HW4Ws5UdA1n7GmpckK8y-424" value="" style="endArrow=none;html=1;rounded=0;fontSize=12;startSize=8;endSize=8;curved=1;exitX=0.5;exitY=1;exitDx=0;exitDy=0;entryX=0.31;entryY=0.45;entryDx=0;entryDy=0;entryPerimeter=0;" parent="1" source="HW4Ws5UdA1n7GmpckK8y-422" target="HW4Ws5UdA1n7GmpckK8y-4" edge="1">
          <mxGeometry relative="1" as="geometry">
            <mxPoint x="1003" y="50" as="sourcePoint" />
            <mxPoint x="1163" y="50" as="targetPoint" />
          </mxGeometry>
        </mxCell>
        <mxCell id="HW4Ws5UdA1n7GmpckK8y-4" value="MARK" style="whiteSpace=wrap;html=1;align=center;fillColor=#d5e8d4;strokeColor=#82b366;" parent="1" vertex="1">
          <mxGeometry x="1406" y="-4" width="100" height="40" as="geometry" />
        </mxCell>
        <mxCell id="HW4Ws5UdA1n7GmpckK8y-425" value="1" style="text;html=1;align=center;verticalAlign=middle;resizable=0;points=[];autosize=1;strokeColor=none;fillColor=none;fontSize=16;" parent="1" vertex="1">
          <mxGeometry x="577.5" y="-344.5" width="27" height="31" as="geometry" />
        </mxCell>
        <mxCell id="HW4Ws5UdA1n7GmpckK8y-426" value="N" style="text;html=1;align=center;verticalAlign=middle;resizable=0;points=[];autosize=1;strokeColor=none;fillColor=none;fontSize=16;" parent="1" vertex="1">
          <mxGeometry x="1413.5" y="-37.5" width="30" height="31" as="geometry" />
        </mxCell>
        <mxCell id="HW4Ws5UdA1n7GmpckK8y-435" value="" style="endArrow=none;html=1;rounded=0;fontSize=12;startSize=8;endSize=8;curved=1;entryX=0.25;entryY=0.061;entryDx=0;entryDy=0;entryPerimeter=0;" parent="1" source="HW4Ws5UdA1n7GmpckK8y-429" target="HW4Ws5UdA1n7GmpckK8y-430" edge="1">
          <mxGeometry relative="1" as="geometry">
            <mxPoint x="557" y="-313" as="sourcePoint" />
            <mxPoint x="1378" y="-312" as="targetPoint" />
          </mxGeometry>
        </mxCell>
        <mxCell id="HW4Ws5UdA1n7GmpckK8y-430" value="" style="shape=requiredInterface;html=1;verticalLabelPosition=bottom;sketch=0;direction=north;" parent="1" vertex="1">
          <mxGeometry x="1053" y="-317.5" width="20" height="10" as="geometry" />
        </mxCell>
        <mxCell id="HW4Ws5UdA1n7GmpckK8y-436" value="" style="endArrow=none;html=1;rounded=0;fontSize=12;startSize=8;endSize=8;curved=1;entryX=0.25;entryY=0.061;entryDx=0;entryDy=0;entryPerimeter=0;" parent="1" target="HW4Ws5UdA1n7GmpckK8y-429" edge="1">
          <mxGeometry relative="1" as="geometry">
            <mxPoint x="557" y="-313" as="sourcePoint" />
            <mxPoint x="1054" y="-310" as="targetPoint" />
          </mxGeometry>
        </mxCell>
        <mxCell id="HW4Ws5UdA1n7GmpckK8y-429" value="" style="shape=requiredInterface;html=1;verticalLabelPosition=bottom;sketch=0;rotation=5;direction=north;" parent="1" vertex="1">
          <mxGeometry x="960" y="-317.5" width="20" height="10" as="geometry" />
        </mxCell>
        <mxCell id="HW4Ws5UdA1n7GmpckK8y-437" value="has" style="shape=rhombus;perimeter=rhombusPerimeter;whiteSpace=wrap;html=1;align=center;fillColor=#ffe6cc;strokeColor=#d79b00;" parent="1" vertex="1">
          <mxGeometry x="837" y="-296.5" width="98" height="48" as="geometry" />
        </mxCell>
        <mxCell id="HW4Ws5UdA1n7GmpckK8y-438" value="" style="endArrow=none;html=1;rounded=0;fontSize=12;startSize=8;endSize=8;curved=1;exitX=1;exitY=0.5;exitDx=0;exitDy=0;entryX=0.5;entryY=0;entryDx=0;entryDy=0;" parent="1" edge="1">
          <mxGeometry relative="1" as="geometry">
            <mxPoint x="556.9999999999998" y="-296.5" as="sourcePoint" />
            <mxPoint x="888" y="-297" as="targetPoint" />
          </mxGeometry>
        </mxCell>
        <mxCell id="HW4Ws5UdA1n7GmpckK8y-439" value="" style="endArrow=none;html=1;rounded=0;fontSize=12;startSize=8;endSize=8;exitX=0.5;exitY=1;exitDx=0;exitDy=0;entryX=1;entryY=0.25;entryDx=0;entryDy=0;edgeStyle=orthogonalEdgeStyle;" parent="1" source="HW4Ws5UdA1n7GmpckK8y-445" target="HW4Ws5UdA1n7GmpckK8y-3" edge="1">
          <mxGeometry relative="1" as="geometry">
            <mxPoint x="391" y="-140" as="sourcePoint" />
            <mxPoint x="551" y="-140" as="targetPoint" />
            <Array as="points">
              <mxPoint x="892" y="-85" />
              <mxPoint x="825" y="-85" />
            </Array>
          </mxGeometry>
        </mxCell>
        <mxCell id="HW4Ws5UdA1n7GmpckK8y-440" value="1" style="text;html=1;align=center;verticalAlign=middle;resizable=0;points=[];autosize=1;strokeColor=none;fillColor=none;fontSize=16;" parent="1" vertex="1">
          <mxGeometry x="561.5" y="-320.5" width="27" height="31" as="geometry" />
        </mxCell>
        <mxCell id="HW4Ws5UdA1n7GmpckK8y-441" value="N" style="text;html=1;align=center;verticalAlign=middle;resizable=0;points=[];autosize=1;strokeColor=none;fillColor=none;fontSize=16;" parent="1" vertex="1">
          <mxGeometry x="822" y="-109" width="30" height="31" as="geometry" />
        </mxCell>
        <mxCell id="HW4Ws5UdA1n7GmpckK8y-444" value="" style="endArrow=none;html=1;rounded=0;fontSize=12;startSize=8;endSize=8;curved=1;exitX=1;exitY=0.5;exitDx=0;exitDy=0;entryX=0.293;entryY=0.007;entryDx=0;entryDy=0;entryPerimeter=0;" parent="1" source="HW4Ws5UdA1n7GmpckK8y-136" target="HW4Ws5UdA1n7GmpckK8y-443" edge="1">
          <mxGeometry relative="1" as="geometry">
            <mxPoint x="767" y="-244" as="sourcePoint" />
            <mxPoint x="763" y="-200" as="targetPoint" />
          </mxGeometry>
        </mxCell>
        <mxCell id="HW4Ws5UdA1n7GmpckK8y-443" value="" style="shape=requiredInterface;html=1;verticalLabelPosition=bottom;sketch=0;" parent="1" vertex="1">
          <mxGeometry x="764" y="-197" width="10" height="20" as="geometry" />
        </mxCell>
        <mxCell id="HW4Ws5UdA1n7GmpckK8y-3" value="ATTANDANCE" style="whiteSpace=wrap;html=1;align=center;fillColor=#d5e8d4;strokeColor=#82b366;" parent="1" vertex="1">
          <mxGeometry x="725" y="-86" width="100" height="40" as="geometry" />
        </mxCell>
        <mxCell id="HW4Ws5UdA1n7GmpckK8y-446" value="" style="endArrow=none;html=1;rounded=0;fontSize=12;startSize=8;endSize=8;exitX=0.5;exitY=1;exitDx=0;exitDy=0;entryX=0.058;entryY=-0.056;entryDx=0;entryDy=0;entryPerimeter=0;" parent="1" source="HW4Ws5UdA1n7GmpckK8y-437" target="HW4Ws5UdA1n7GmpckK8y-445" edge="1">
          <mxGeometry relative="1" as="geometry">
            <mxPoint x="888" y="-246" as="sourcePoint" />
            <mxPoint x="884" y="-193" as="targetPoint" />
          </mxGeometry>
        </mxCell>
        <mxCell id="HW4Ws5UdA1n7GmpckK8y-445" value="" style="shape=requiredInterface;html=1;verticalLabelPosition=bottom;sketch=0;" parent="1" vertex="1">
          <mxGeometry x="887" y="-191.88" width="10" height="20" as="geometry" />
        </mxCell>
        <mxCell id="HW4Ws5UdA1n7GmpckK8y-171" value="sees" style="shape=rhombus;perimeter=rhombusPerimeter;whiteSpace=wrap;html=1;align=center;fillColor=#ffe6cc;strokeColor=#d79b00;" parent="1" vertex="1">
          <mxGeometry x="220" y="370" width="120" height="60" as="geometry" />
        </mxCell>
        <mxCell id="HW4Ws5UdA1n7GmpckK8y-183" value="sees" style="shape=rhombus;perimeter=rhombusPerimeter;whiteSpace=wrap;html=1;align=center;fillColor=#ffe6cc;strokeColor=#d79b00;" parent="1" vertex="1">
          <mxGeometry x="793" y="305" width="120" height="60" as="geometry" />
        </mxCell>
        <mxCell id="HW4Ws5UdA1n7GmpckK8y-453" value="" style="endArrow=none;html=1;rounded=0;fontSize=12;startSize=8;endSize=8;exitX=0.194;exitY=0.159;exitDx=0;exitDy=0;entryX=1;entryY=0.75;entryDx=0;entryDy=0;edgeStyle=orthogonalEdgeStyle;exitPerimeter=0;" parent="1" source="HW4Ws5UdA1n7GmpckK8y-525" edge="1">
          <mxGeometry relative="1" as="geometry">
            <mxPoint x="630" y="180" as="sourcePoint" />
            <mxPoint x="545" y="-283" as="targetPoint" />
            <Array as="points">
              <mxPoint x="636" y="-249" />
              <mxPoint x="636" y="-283" />
            </Array>
          </mxGeometry>
        </mxCell>
        <mxCell id="HW4Ws5UdA1n7GmpckK8y-454" value="" style="endArrow=none;html=1;rounded=0;fontSize=12;startSize=8;endSize=8;exitX=0.121;exitY=1.029;exitDx=0;exitDy=0;entryX=0;entryY=0.25;entryDx=0;entryDy=0;edgeStyle=orthogonalEdgeStyle;exitPerimeter=0;" parent="1" source="HW4Ws5UdA1n7GmpckK8y-504" target="HW4Ws5UdA1n7GmpckK8y-1" edge="1">
          <mxGeometry relative="1" as="geometry">
            <mxPoint x="632.4999999999997" y="413.00999999999993" as="sourcePoint" />
            <mxPoint x="819.91" y="538.69" as="targetPoint" />
            <Array as="points">
              <mxPoint x="642" y="413" />
              <mxPoint x="639" y="413" />
              <mxPoint x="639" y="539" />
            </Array>
          </mxGeometry>
        </mxCell>
        <mxCell id="HW4Ws5UdA1n7GmpckK8y-455" value="N" style="text;html=1;align=center;verticalAlign=middle;resizable=0;points=[];autosize=1;strokeColor=none;fillColor=none;fontSize=16;" parent="1" vertex="1">
          <mxGeometry x="750.5" y="504.5" width="30" height="31" as="geometry" />
        </mxCell>
        <mxCell id="HW4Ws5UdA1n7GmpckK8y-456" value="1" style="text;html=1;align=center;verticalAlign=middle;resizable=0;points=[];autosize=1;strokeColor=none;fillColor=none;fontSize=16;" parent="1" vertex="1">
          <mxGeometry x="585" y="-290" width="27" height="31" as="geometry" />
        </mxCell>
        <mxCell id="HW4Ws5UdA1n7GmpckK8y-7" value="STUDENT" style="whiteSpace=wrap;html=1;align=center;fillColor=#d5e8d4;strokeColor=#82b366;" parent="1" vertex="1">
          <mxGeometry x="457" y="-313" width="100" height="40" as="geometry" />
        </mxCell>
        <mxCell id="HW4Ws5UdA1n7GmpckK8y-452" value="has" style="shape=rhombus;perimeter=rhombusPerimeter;whiteSpace=wrap;html=1;align=center;fillColor=#ffe6cc;strokeColor=#d79b00;" parent="1" vertex="1">
          <mxGeometry x="582" y="174" width="120" height="60" as="geometry" />
        </mxCell>
        <mxCell id="HW4Ws5UdA1n7GmpckK8y-457" value="records" style="shape=rhombus;perimeter=rhombusPerimeter;whiteSpace=wrap;html=1;align=center;fillColor=#ffe6cc;strokeColor=#d79b00;" parent="1" vertex="1">
          <mxGeometry x="1114" y="175" width="120" height="60" as="geometry" />
        </mxCell>
        <mxCell id="HW4Ws5UdA1n7GmpckK8y-458" value="" style="endArrow=none;html=1;rounded=0;fontSize=12;startSize=8;endSize=8;exitX=1;exitY=0.5;exitDx=0;exitDy=0;entryX=0.5;entryY=1;entryDx=0;entryDy=0;edgeStyle=orthogonalEdgeStyle;" parent="1" source="HW4Ws5UdA1n7GmpckK8y-1" target="HW4Ws5UdA1n7GmpckK8y-457" edge="1">
          <mxGeometry relative="1" as="geometry">
            <mxPoint x="1094" y="205" as="sourcePoint" />
            <mxPoint x="1254" y="205" as="targetPoint" />
          </mxGeometry>
        </mxCell>
        <mxCell id="HW4Ws5UdA1n7GmpckK8y-459" value="N" style="text;html=1;align=center;verticalAlign=middle;resizable=0;points=[];autosize=1;strokeColor=none;fillColor=none;fontSize=16;" parent="1" vertex="1">
          <mxGeometry x="940.5" y="512.5" width="30" height="31" as="geometry" />
        </mxCell>
        <mxCell id="HW4Ws5UdA1n7GmpckK8y-460" value="" style="endArrow=none;html=1;rounded=0;fontSize=12;startSize=8;endSize=8;exitX=0.256;exitY=0.03;exitDx=0;exitDy=0;entryX=0.5;entryY=0;entryDx=0;entryDy=0;exitPerimeter=0;" parent="1" source="HW4Ws5UdA1n7GmpckK8y-520" target="HW4Ws5UdA1n7GmpckK8y-457" edge="1">
          <mxGeometry relative="1" as="geometry">
            <mxPoint x="1094" y="-54" as="sourcePoint" />
            <mxPoint x="1254" y="-54" as="targetPoint" />
          </mxGeometry>
        </mxCell>
        <mxCell id="HW4Ws5UdA1n7GmpckK8y-461" value="1" style="text;html=1;align=center;verticalAlign=middle;resizable=0;points=[];autosize=1;strokeColor=none;fillColor=none;fontSize=16;" parent="1" vertex="1">
          <mxGeometry x="981.5" y="-449.5" width="27" height="31" as="geometry" />
        </mxCell>
        <mxCell id="HW4Ws5UdA1n7GmpckK8y-462" value="records" style="shape=rhombus;perimeter=rhombusPerimeter;whiteSpace=wrap;html=1;align=center;fillColor=#ffe6cc;strokeColor=#d79b00;" parent="1" vertex="1">
          <mxGeometry x="981.75" y="-91" width="74" height="52" as="geometry" />
        </mxCell>
        <mxCell id="HW4Ws5UdA1n7GmpckK8y-463" value="" style="endArrow=none;html=1;rounded=0;fontSize=12;startSize=8;endSize=8;entryX=0.5;entryY=0;entryDx=0;entryDy=0;edgeStyle=elbowEdgeStyle;exitX=0.133;exitY=0.957;exitDx=0;exitDy=0;exitPerimeter=0;" parent="1" source="HW4Ws5UdA1n7GmpckK8y-469" target="HW4Ws5UdA1n7GmpckK8y-462" edge="1">
          <mxGeometry relative="1" as="geometry">
            <mxPoint x="1013" y="-172" as="sourcePoint" />
            <mxPoint x="875" y="-167" as="targetPoint" />
            <Array as="points" />
          </mxGeometry>
        </mxCell>
        <mxCell id="HW4Ws5UdA1n7GmpckK8y-464" value="" style="endArrow=none;html=1;rounded=0;fontSize=12;startSize=8;endSize=8;curved=1;exitX=0.34;exitY=1.016;exitDx=0;exitDy=0;entryX=0;entryY=0.5;entryDx=0;entryDy=0;exitPerimeter=0;" parent="1" source="HW4Ws5UdA1n7GmpckK8y-473" target="HW4Ws5UdA1n7GmpckK8y-462" edge="1">
          <mxGeometry relative="1" as="geometry">
            <mxPoint x="715" y="-167" as="sourcePoint" />
            <mxPoint x="875" y="-167" as="targetPoint" />
          </mxGeometry>
        </mxCell>
        <mxCell id="HW4Ws5UdA1n7GmpckK8y-465" value="M" style="text;html=1;align=center;verticalAlign=middle;resizable=0;points=[];autosize=1;strokeColor=none;fillColor=none;fontSize=16;" parent="1" vertex="1">
          <mxGeometry x="847" y="-88" width="31" height="31" as="geometry" />
        </mxCell>
        <mxCell id="HW4Ws5UdA1n7GmpckK8y-466" value="1" style="text;html=1;align=center;verticalAlign=middle;resizable=0;points=[];autosize=1;strokeColor=none;fillColor=none;fontSize=16;" parent="1" vertex="1">
          <mxGeometry x="978.5" y="-384.5" width="27" height="31" as="geometry" />
        </mxCell>
        <mxCell id="HW4Ws5UdA1n7GmpckK8y-468" style="edgeStyle=none;curved=1;rounded=0;orthogonalLoop=1;jettySize=auto;html=1;entryX=0.668;entryY=-0.029;entryDx=0;entryDy=0;entryPerimeter=0;fontSize=12;startSize=8;endSize=8;" parent="1" source="HW4Ws5UdA1n7GmpckK8y-466" target="HW4Ws5UdA1n7GmpckK8y-466" edge="1">
          <mxGeometry relative="1" as="geometry" />
        </mxCell>
        <mxCell id="HW4Ws5UdA1n7GmpckK8y-470" value="" style="endArrow=none;html=1;rounded=0;fontSize=12;startSize=8;endSize=8;exitX=0.186;exitY=0.898;exitDx=0;exitDy=0;entryX=0.5;entryY=0;entryDx=0;entryDy=0;edgeStyle=elbowEdgeStyle;exitPerimeter=0;" parent="1" source="HW4Ws5UdA1n7GmpckK8y-471" target="HW4Ws5UdA1n7GmpckK8y-469" edge="1">
          <mxGeometry relative="1" as="geometry">
            <mxPoint x="980" y="-378" as="sourcePoint" />
            <mxPoint x="1019" y="-93" as="targetPoint" />
            <Array as="points">
              <mxPoint x="1014" y="-250" />
            </Array>
          </mxGeometry>
        </mxCell>
        <mxCell id="HW4Ws5UdA1n7GmpckK8y-469" value="" style="shape=requiredInterface;html=1;verticalLabelPosition=bottom;sketch=0;" parent="1" vertex="1">
          <mxGeometry x="1013.5" y="-190" width="10.5" height="20" as="geometry" />
        </mxCell>
        <mxCell id="HW4Ws5UdA1n7GmpckK8y-472" value="" style="endArrow=none;html=1;rounded=0;fontSize=12;startSize=8;endSize=8;exitX=1;exitY=0.5;exitDx=0;exitDy=0;entryX=0.5;entryY=0;entryDx=0;entryDy=0;edgeStyle=elbowEdgeStyle;" parent="1" source="HW4Ws5UdA1n7GmpckK8y-6" target="HW4Ws5UdA1n7GmpckK8y-471" edge="1">
          <mxGeometry relative="1" as="geometry">
            <mxPoint x="980" y="-378" as="sourcePoint" />
            <mxPoint x="1019" y="-190" as="targetPoint" />
            <Array as="points">
              <mxPoint x="1014" y="-346" />
            </Array>
          </mxGeometry>
        </mxCell>
        <mxCell id="HW4Ws5UdA1n7GmpckK8y-471" value="" style="shape=requiredInterface;html=1;verticalLabelPosition=bottom;sketch=0;" parent="1" vertex="1">
          <mxGeometry x="1013.5" y="-322.5" width="10" height="20" as="geometry" />
        </mxCell>
        <mxCell id="HW4Ws5UdA1n7GmpckK8y-478" value="" style="endArrow=none;html=1;rounded=0;fontSize=12;startSize=8;endSize=8;curved=1;entryX=0.378;entryY=0.04;entryDx=0;entryDy=0;entryPerimeter=0;" parent="1" target="HW4Ws5UdA1n7GmpckK8y-473" edge="1">
          <mxGeometry relative="1" as="geometry">
            <mxPoint x="825" y="-65" as="sourcePoint" />
            <mxPoint x="982" y="-67" as="targetPoint" />
          </mxGeometry>
        </mxCell>
        <mxCell id="HW4Ws5UdA1n7GmpckK8y-473" value="" style="shape=requiredInterface;html=1;verticalLabelPosition=bottom;sketch=0;direction=north;" parent="1" vertex="1">
          <mxGeometry x="960" y="-71" width="20" height="10" as="geometry" />
        </mxCell>
        <mxCell id="HW4Ws5UdA1n7GmpckK8y-483" value="" style="endArrow=none;html=1;rounded=0;fontSize=12;startSize=8;endSize=8;exitX=0.164;exitY=1.037;exitDx=0;exitDy=0;entryX=0.186;entryY=-0.049;entryDx=0;entryDy=0;exitPerimeter=0;entryPerimeter=0;" parent="1" source="HW4Ws5UdA1n7GmpckK8y-347" target="HW4Ws5UdA1n7GmpckK8y-482" edge="1">
          <mxGeometry relative="1" as="geometry">
            <mxPoint x="161" y="-48" as="sourcePoint" />
            <mxPoint x="797" y="66" as="targetPoint" />
          </mxGeometry>
        </mxCell>
        <mxCell id="HW4Ws5UdA1n7GmpckK8y-482" value="" style="shape=requiredInterface;html=1;verticalLabelPosition=bottom;sketch=0;" parent="1" vertex="1">
          <mxGeometry x="159" y="1" width="10" height="20" as="geometry" />
        </mxCell>
        <mxCell id="HW4Ws5UdA1n7GmpckK8y-486" value="" style="endArrow=none;html=1;rounded=0;fontSize=12;startSize=8;endSize=8;exitX=0.5;exitY=1;exitDx=0;exitDy=0;entryX=0.036;entryY=-0.013;entryDx=0;entryDy=0;entryPerimeter=0;" parent="1" source="HW4Ws5UdA1n7GmpckK8y-452" target="HW4Ws5UdA1n7GmpckK8y-484" edge="1">
          <mxGeometry relative="1" as="geometry">
            <mxPoint x="642" y="234" as="sourcePoint" />
            <mxPoint x="626" y="327" as="targetPoint" />
          </mxGeometry>
        </mxCell>
        <mxCell id="HW4Ws5UdA1n7GmpckK8y-484" value="" style="shape=requiredInterface;html=1;verticalLabelPosition=bottom;sketch=0;" parent="1" vertex="1">
          <mxGeometry x="641" y="330" width="10" height="20" as="geometry" />
        </mxCell>
        <mxCell id="HW4Ws5UdA1n7GmpckK8y-491" value="" style="endArrow=none;html=1;rounded=0;fontSize=12;startSize=8;endSize=8;exitX=0.017;exitY=1.077;exitDx=0;exitDy=0;exitPerimeter=0;entryX=-0.005;entryY=-0.035;entryDx=0;entryDy=0;entryPerimeter=0;" parent="1" source="HW4Ws5UdA1n7GmpckK8y-284" target="HW4Ws5UdA1n7GmpckK8y-488" edge="1">
          <mxGeometry relative="1" as="geometry">
            <mxPoint x="587" y="113" as="sourcePoint" />
            <mxPoint x="636" y="115" as="targetPoint" />
          </mxGeometry>
        </mxCell>
        <mxCell id="HW4Ws5UdA1n7GmpckK8y-488" value="" style="shape=requiredInterface;html=1;verticalLabelPosition=bottom;sketch=0;direction=north;" parent="1" vertex="1">
          <mxGeometry x="631" y="103" width="20" height="10" as="geometry" />
        </mxCell>
        <mxCell id="HW4Ws5UdA1n7GmpckK8y-494" value="" style="endArrow=none;html=1;rounded=0;fontSize=12;startSize=8;endSize=8;curved=1;exitX=0.275;exitY=0.975;exitDx=0;exitDy=0;entryX=0.253;entryY=0.006;entryDx=0;entryDy=0;exitPerimeter=0;entryPerimeter=0;" parent="1" source="HW4Ws5UdA1n7GmpckK8y-344" target="HW4Ws5UdA1n7GmpckK8y-492" edge="1">
          <mxGeometry relative="1" as="geometry">
            <mxPoint x="582" y="13" as="sourcePoint" />
            <mxPoint x="754" y="15" as="targetPoint" />
          </mxGeometry>
        </mxCell>
        <mxCell id="HW4Ws5UdA1n7GmpckK8y-492" value="" style="shape=requiredInterface;html=1;verticalLabelPosition=bottom;sketch=0;direction=north;" parent="1" vertex="1">
          <mxGeometry x="627" y="6" width="20" height="10" as="geometry" />
        </mxCell>
        <mxCell id="HW4Ws5UdA1n7GmpckK8y-495" value="" style="shape=requiredInterface;html=1;verticalLabelPosition=bottom;sketch=0;direction=north;" parent="1" vertex="1">
          <mxGeometry x="632.5" y="56.5" width="19" height="10" as="geometry" />
        </mxCell>
        <mxCell id="HW4Ws5UdA1n7GmpckK8y-505" value="" style="endArrow=none;html=1;rounded=0;fontSize=12;startSize=8;endSize=8;exitX=0.059;exitY=1.016;exitDx=0;exitDy=0;entryX=0;entryY=0.25;entryDx=0;entryDy=0;edgeStyle=orthogonalEdgeStyle;exitPerimeter=0;" parent="1" source="HW4Ws5UdA1n7GmpckK8y-484" target="HW4Ws5UdA1n7GmpckK8y-504" edge="1">
          <mxGeometry relative="1" as="geometry">
            <mxPoint x="642" y="350" as="sourcePoint" />
            <mxPoint x="825" y="539" as="targetPoint" />
            <Array as="points">
              <mxPoint x="642" y="398" />
            </Array>
          </mxGeometry>
        </mxCell>
        <mxCell id="HW4Ws5UdA1n7GmpckK8y-504" value="" style="shape=requiredInterface;html=1;verticalLabelPosition=bottom;sketch=0;" parent="1" vertex="1">
          <mxGeometry x="641" y="394" width="10" height="20" as="geometry" />
        </mxCell>
        <mxCell id="HW4Ws5UdA1n7GmpckK8y-510" value="" style="endArrow=none;html=1;rounded=0;fontSize=12;startSize=8;endSize=8;exitX=0.5;exitY=0;exitDx=0;exitDy=0;entryX=1;entryY=0.75;entryDx=0;entryDy=0;edgeStyle=orthogonalEdgeStyle;" parent="1" target="HW4Ws5UdA1n7GmpckK8y-509" edge="1">
          <mxGeometry relative="1" as="geometry">
            <mxPoint x="630" y="180" as="sourcePoint" />
            <mxPoint x="545" y="-283" as="targetPoint" />
            <Array as="points">
              <mxPoint x="641" y="180" />
              <mxPoint x="641" y="-192" />
            </Array>
          </mxGeometry>
        </mxCell>
        <mxCell id="HW4Ws5UdA1n7GmpckK8y-509" value="" style="shape=requiredInterface;html=1;verticalLabelPosition=bottom;sketch=0;direction=east;" parent="1" vertex="1">
          <mxGeometry x="636" y="-196.88" width="10" height="20" as="geometry" />
        </mxCell>
        <mxCell id="HW4Ws5UdA1n7GmpckK8y-512" value="" style="endArrow=none;html=1;rounded=0;fontSize=12;startSize=8;endSize=8;curved=1;entryX=0.285;entryY=0.112;entryDx=0;entryDy=0;entryPerimeter=0;" parent="1" source="HW4Ws5UdA1n7GmpckK8y-430" target="HW4Ws5UdA1n7GmpckK8y-511" edge="1">
          <mxGeometry relative="1" as="geometry">
            <mxPoint x="1073" y="-312" as="sourcePoint" />
            <mxPoint x="1378" y="-312" as="targetPoint" />
          </mxGeometry>
        </mxCell>
        <mxCell id="HW4Ws5UdA1n7GmpckK8y-511" value="" style="shape=requiredInterface;html=1;verticalLabelPosition=bottom;sketch=0;direction=north;" parent="1" vertex="1">
          <mxGeometry x="1164" y="-315.5" width="20" height="10" as="geometry" />
        </mxCell>
        <mxCell id="HW4Ws5UdA1n7GmpckK8y-515" value="" style="endArrow=none;html=1;rounded=0;fontSize=12;startSize=8;endSize=8;exitX=0;exitY=0.908;exitDx=0;exitDy=0;exitPerimeter=0;entryX=0.133;entryY=-0.021;entryDx=0;entryDy=0;entryPerimeter=0;" parent="1" source="HW4Ws5UdA1n7GmpckK8y-369" target="HW4Ws5UdA1n7GmpckK8y-513" edge="1">
          <mxGeometry relative="1" as="geometry">
            <mxPoint x="1076" y="-182" as="sourcePoint" />
            <mxPoint x="1264" y="-184" as="targetPoint" />
          </mxGeometry>
        </mxCell>
        <mxCell id="HW4Ws5UdA1n7GmpckK8y-513" value="" style="shape=requiredInterface;html=1;verticalLabelPosition=bottom;sketch=0;direction=north;" parent="1" vertex="1">
          <mxGeometry x="1171" y="-194" width="20" height="12" as="geometry" />
        </mxCell>
        <mxCell id="HW4Ws5UdA1n7GmpckK8y-516" value="" style="endArrow=none;html=1;rounded=0;fontSize=12;startSize=8;endSize=8;curved=1;exitX=0.232;exitY=0.981;exitDx=0;exitDy=0;exitPerimeter=0;entryX=0;entryY=0.5;entryDx=0;entryDy=0;" parent="1" source="HW4Ws5UdA1n7GmpckK8y-513" target="HW4Ws5UdA1n7GmpckK8y-353" edge="1">
          <mxGeometry relative="1" as="geometry">
            <mxPoint x="1068" y="-128" as="sourcePoint" />
            <mxPoint x="1228" y="-128" as="targetPoint" />
          </mxGeometry>
        </mxCell>
        <mxCell id="HW4Ws5UdA1n7GmpckK8y-519" value="" style="endArrow=none;html=1;rounded=0;fontSize=12;startSize=8;endSize=8;exitX=1;exitY=0;exitDx=0;exitDy=0;entryX=0.174;entryY=0.87;entryDx=0;entryDy=0;edgeStyle=orthogonalEdgeStyle;entryPerimeter=0;" parent="1" source="HW4Ws5UdA1n7GmpckK8y-6" target="HW4Ws5UdA1n7GmpckK8y-517" edge="1">
          <mxGeometry relative="1" as="geometry">
            <mxPoint x="980" y="-398" as="sourcePoint" />
            <mxPoint x="1174" y="175" as="targetPoint" />
          </mxGeometry>
        </mxCell>
        <mxCell id="HW4Ws5UdA1n7GmpckK8y-517" value="" style="shape=requiredInterface;html=1;verticalLabelPosition=bottom;sketch=0;direction=west;" parent="1" vertex="1">
          <mxGeometry x="1169" y="8" width="10" height="20" as="geometry" />
        </mxCell>
        <mxCell id="HW4Ws5UdA1n7GmpckK8y-521" value="" style="endArrow=none;html=1;rounded=0;fontSize=12;startSize=8;endSize=8;exitX=0.256;exitY=0.03;exitDx=0;exitDy=0;exitPerimeter=0;" parent="1" source="HW4Ws5UdA1n7GmpckK8y-517" edge="1">
          <mxGeometry relative="1" as="geometry">
            <mxPoint x="1176" y="27" as="sourcePoint" />
            <mxPoint x="1176" y="57" as="targetPoint" />
          </mxGeometry>
        </mxCell>
        <mxCell id="HW4Ws5UdA1n7GmpckK8y-520" value="" style="shape=requiredInterface;html=1;verticalLabelPosition=bottom;sketch=0;direction=west;" parent="1" vertex="1">
          <mxGeometry x="1166" y="57.5" width="10" height="20" as="geometry" />
        </mxCell>
        <mxCell id="HW4Ws5UdA1n7GmpckK8y-526" value="" style="endArrow=none;html=1;rounded=0;fontSize=12;startSize=8;endSize=8;exitX=0.194;exitY=0.159;exitDx=0;exitDy=0;entryX=0.044;entryY=0.972;entryDx=0;entryDy=0;edgeStyle=orthogonalEdgeStyle;exitPerimeter=0;entryPerimeter=0;" parent="1" source="HW4Ws5UdA1n7GmpckK8y-509" target="HW4Ws5UdA1n7GmpckK8y-525" edge="1">
          <mxGeometry relative="1" as="geometry">
            <mxPoint x="638" y="-194" as="sourcePoint" />
            <mxPoint x="545" y="-283" as="targetPoint" />
            <Array as="points">
              <mxPoint x="638" y="-187" />
              <mxPoint x="639" y="-187" />
              <mxPoint x="639" y="-233" />
            </Array>
          </mxGeometry>
        </mxCell>
        <mxCell id="HW4Ws5UdA1n7GmpckK8y-525" value="" style="shape=requiredInterface;html=1;verticalLabelPosition=bottom;sketch=0;" parent="1" vertex="1">
          <mxGeometry x="632.5" y="-252" width="10" height="20" as="geometry" />
        </mxCell>
        <mxCell id="HW4Ws5UdA1n7GmpckK8y-531" value="d" style="text;html=1;align=center;verticalAlign=middle;resizable=0;points=[];autosize=1;strokeColor=none;fillColor=none;fontSize=16;" parent="1" vertex="1">
          <mxGeometry x="213" y="-437" width="27" height="31" as="geometry" />
        </mxCell>
        <mxCell id="HW4Ws5UdA1n7GmpckK8y-533" value="admin_id" style="ellipse;whiteSpace=wrap;html=1;align=center;fontStyle=4;fillColor=#dae8fc;strokeColor=#6c8ebf;" parent="1" vertex="1">
          <mxGeometry x="-458.5" y="-456" width="100" height="40" as="geometry" />
        </mxCell>
        <mxCell id="HW4Ws5UdA1n7GmpckK8y-534" value="lecture_id" style="ellipse;whiteSpace=wrap;html=1;align=center;fontStyle=4;fillColor=#dae8fc;strokeColor=#6c8ebf;" parent="1" vertex="1">
          <mxGeometry x="-94.5" y="-377" width="100" height="40" as="geometry" />
        </mxCell>
        <mxCell id="HW4Ws5UdA1n7GmpckK8y-535" value="student_id" style="ellipse;whiteSpace=wrap;html=1;align=center;fontStyle=4;fillColor=#dae8fc;strokeColor=#6c8ebf;" parent="1" vertex="1">
          <mxGeometry x="499" y="-372.5" width="100" height="40" as="geometry" />
        </mxCell>
        <mxCell id="HW4Ws5UdA1n7GmpckK8y-536" value="T/O_id" style="ellipse;whiteSpace=wrap;html=1;align=center;fontStyle=4;fillColor=#dae8fc;strokeColor=#6c8ebf;" parent="1" vertex="1">
          <mxGeometry x="918" y="-499.5" width="100" height="40" as="geometry" />
        </mxCell>
        <mxCell id="HW4Ws5UdA1n7GmpckK8y-537" value="timetable_id" style="ellipse;whiteSpace=wrap;html=1;align=center;fontStyle=4;fillColor=#dae8fc;strokeColor=#6c8ebf;" parent="1" vertex="1">
          <mxGeometry x="189" y="166" width="100" height="40" as="geometry" />
        </mxCell>
        <mxCell id="HW4Ws5UdA1n7GmpckK8y-538" value="attandance_id" style="ellipse;whiteSpace=wrap;html=1;align=center;fontStyle=4;fillColor=#dae8fc;strokeColor=#6c8ebf;" parent="1" vertex="1">
          <mxGeometry x="849" y="-50.5" width="100" height="40" as="geometry" />
        </mxCell>
        <mxCell id="HW4Ws5UdA1n7GmpckK8y-541" value="mark_id" style="ellipse;whiteSpace=wrap;html=1;align=center;fontStyle=4;fillColor=#dae8fc;strokeColor=#6c8ebf;" parent="1" vertex="1">
          <mxGeometry x="1432.5" y="148" width="100" height="40" as="geometry" />
        </mxCell>
        <mxCell id="HW4Ws5UdA1n7GmpckK8y-542" value="" style="endArrow=none;html=1;rounded=0;fontSize=12;startSize=8;endSize=8;curved=1;exitX=0.75;exitY=1;exitDx=0;exitDy=0;entryX=0.5;entryY=0;entryDx=0;entryDy=0;" parent="1" source="HW4Ws5UdA1n7GmpckK8y-4" target="HW4Ws5UdA1n7GmpckK8y-541" edge="1">
          <mxGeometry relative="1" as="geometry">
            <mxPoint x="1131" y="-9" as="sourcePoint" />
            <mxPoint x="1291" y="-9" as="targetPoint" />
          </mxGeometry>
        </mxCell>
        <mxCell id="cjzlWI73K15i2qjXVFuw-1" value="TG/1388&lt;div&gt;TG/1397&amp;nbsp;&lt;/div&gt;&lt;div&gt;TG/1349&amp;nbsp;&lt;/div&gt;&lt;div&gt;TG/1343&amp;nbsp;&lt;/div&gt;&lt;div&gt;&lt;br&gt;&lt;/div&gt;" style="rounded=0;whiteSpace=wrap;html=1;" vertex="1" parent="1">
          <mxGeometry x="-723" y="-617" width="132" height="106" as="geometry" />
        </mxCell>
      </root>
    </mxGraphModel>
  </diagram>
</mxfile>
